ISO-10303-21;
HEADER;
/* Generated by software containing ST-Developer
 * from STEP Tools, Inc. (www.steptools.com) 
 */

FILE_DESCRIPTION(
/* description */ (''),
/* implementation_level */ '2;1');

FILE_NAME(
/* name */ 'R4_backbrace.step',
/* time_stamp */ '2025-10-06T02:32:34+02:00',
/* author */ (''),
/* organization */ (''),
/* preprocessor_version */ 'ST-DEVELOPER v20.1',
/* originating_system */ 'Autodesk Translation Framework v14.17.0.0',
/* authorisation */ '');

FILE_SCHEMA (('AUTOMOTIVE_DESIGN { 1 0 10303 214 3 1 1 }'));
ENDSEC;

DATA;
#10=MECHANICAL_DESIGN_GEOMETRIC_PRESENTATION_REPRESENTATION('',(#17),#870);
#11=ITEM_DEFINED_TRANSFORMATION($,$,#518,#570);
#12=(
REPRESENTATION_RELATIONSHIP($,$,#881,#880)
REPRESENTATION_RELATIONSHIP_WITH_TRANSFORMATION(#11)
SHAPE_REPRESENTATION_RELATIONSHIP()
);
#13=CONTEXT_DEPENDENT_SHAPE_REPRESENTATION(#12,#879);
#14=NEXT_ASSEMBLY_USAGE_OCCURRENCE('Rigifier:1','Rigifier:1',
'Rigifier:1',#883,#884,'Rigifier:1');
#15=SHAPE_REPRESENTATION_RELATIONSHIP('SRR','None',#881,#16);
#16=ADVANCED_BREP_SHAPE_REPRESENTATION('',(#18),#869);
#17=STYLED_ITEM('',(#901),#18);
#18=MANIFOLD_SOLID_BREP('K\X\F6rper1',#504);
#19=FACE_BOUND('',#90,.T.);
#20=FACE_BOUND('',#91,.T.);
#21=FACE_BOUND('',#92,.T.);
#22=FACE_BOUND('',#93,.T.);
#23=FACE_BOUND('',#94,.T.);
#24=FACE_BOUND('',#96,.T.);
#25=FACE_BOUND('',#97,.T.);
#26=FACE_BOUND('',#98,.T.);
#27=FACE_BOUND('',#99,.T.);
#28=FACE_BOUND('',#100,.T.);
#29=PLANE('',#522);
#30=PLANE('',#529);
#31=PLANE('',#533);
#32=PLANE('',#534);
#33=PLANE('',#535);
#34=PLANE('',#536);
#35=PLANE('',#546);
#36=PLANE('',#559);
#37=PLANE('',#563);
#38=PLANE('',#567);
#39=PLANE('',#568);
#40=PLANE('',#569);
#41=FACE_OUTER_BOUND('',#66,.T.);
#42=FACE_OUTER_BOUND('',#67,.T.);
#43=FACE_OUTER_BOUND('',#68,.T.);
#44=FACE_OUTER_BOUND('',#69,.T.);
#45=FACE_OUTER_BOUND('',#70,.T.);
#46=FACE_OUTER_BOUND('',#71,.T.);
#47=FACE_OUTER_BOUND('',#72,.T.);
#48=FACE_OUTER_BOUND('',#73,.T.);
#49=FACE_OUTER_BOUND('',#74,.T.);
#50=FACE_OUTER_BOUND('',#75,.T.);
#51=FACE_OUTER_BOUND('',#76,.T.);
#52=FACE_OUTER_BOUND('',#77,.T.);
#53=FACE_OUTER_BOUND('',#78,.T.);
#54=FACE_OUTER_BOUND('',#79,.T.);
#55=FACE_OUTER_BOUND('',#80,.T.);
#56=FACE_OUTER_BOUND('',#81,.T.);
#57=FACE_OUTER_BOUND('',#82,.T.);
#58=FACE_OUTER_BOUND('',#83,.T.);
#59=FACE_OUTER_BOUND('',#84,.T.);
#60=FACE_OUTER_BOUND('',#85,.T.);
#61=FACE_OUTER_BOUND('',#86,.T.);
#62=FACE_OUTER_BOUND('',#87,.T.);
#63=FACE_OUTER_BOUND('',#88,.T.);
#64=FACE_OUTER_BOUND('',#89,.T.);
#65=FACE_OUTER_BOUND('',#95,.T.);
#66=EDGE_LOOP('',(#328,#329,#330,#331));
#67=EDGE_LOOP('',(#332,#333,#334,#335));
#68=EDGE_LOOP('',(#336,#337,#338,#339));
#69=EDGE_LOOP('',(#340,#341,#342,#343));
#70=EDGE_LOOP('',(#344,#345,#346,#347));
#71=EDGE_LOOP('',(#348,#349,#350,#351));
#72=EDGE_LOOP('',(#352,#353,#354,#355));
#73=EDGE_LOOP('',(#356,#357,#358,#359));
#74=EDGE_LOOP('',(#360,#361,#362,#363));
#75=EDGE_LOOP('',(#364,#365,#366,#367));
#76=EDGE_LOOP('',(#368,#369,#370,#371));
#77=EDGE_LOOP('',(#372,#373,#374,#375));
#78=EDGE_LOOP('',(#376,#377,#378,#379));
#79=EDGE_LOOP('',(#380,#381,#382,#383));
#80=EDGE_LOOP('',(#384,#385,#386,#387));
#81=EDGE_LOOP('',(#388,#389,#390,#391));
#82=EDGE_LOOP('',(#392,#393,#394,#395));
#83=EDGE_LOOP('',(#396,#397,#398,#399));
#84=EDGE_LOOP('',(#400,#401,#402,#403));
#85=EDGE_LOOP('',(#404,#405,#406,#407));
#86=EDGE_LOOP('',(#408,#409,#410,#411));
#87=EDGE_LOOP('',(#412,#413,#414,#415));
#88=EDGE_LOOP('',(#416,#417,#418,#419));
#89=EDGE_LOOP('',(#420,#421,#422,#423,#424,#425));
#90=EDGE_LOOP('',(#426,#427,#428,#429,#430,#431,#432,#433));
#91=EDGE_LOOP('',(#434,#435,#436,#437,#438,#439));
#92=EDGE_LOOP('',(#440));
#93=EDGE_LOOP('',(#441));
#94=EDGE_LOOP('',(#442));
#95=EDGE_LOOP('',(#443,#444,#445,#446,#447,#448));
#96=EDGE_LOOP('',(#449,#450,#451,#452,#453,#454));
#97=EDGE_LOOP('',(#455,#456,#457,#458,#459,#460,#461,#462));
#98=EDGE_LOOP('',(#463));
#99=EDGE_LOOP('',(#464));
#100=EDGE_LOOP('',(#465));
#101=LINE('',#729,#144);
#102=LINE('',#732,#145);
#103=LINE('',#735,#146);
#104=LINE('',#737,#147);
#105=LINE('',#738,#148);
#106=LINE('',#744,#149);
#107=LINE('',#750,#150);
#108=LINE('',#753,#151);
#109=LINE('',#756,#152);
#110=LINE('',#758,#153);
#111=LINE('',#759,#154);
#112=LINE('',#765,#155);
#113=LINE('',#768,#156);
#114=LINE('',#770,#157);
#115=LINE('',#771,#158);
#116=LINE('',#774,#159);
#117=LINE('',#776,#160);
#118=LINE('',#777,#161);
#119=LINE('',#780,#162);
#120=LINE('',#782,#163);
#121=LINE('',#783,#164);
#122=LINE('',#786,#165);
#123=LINE('',#788,#166);
#124=LINE('',#789,#167);
#125=LINE('',#794,#168);
#126=LINE('',#804,#169);
#127=LINE('',#806,#170);
#128=LINE('',#807,#171);
#129=LINE('',#812,#172);
#130=LINE('',#818,#173);
#131=LINE('',#824,#174);
#132=LINE('',#831,#175);
#133=LINE('',#834,#176);
#134=LINE('',#837,#177);
#135=LINE('',#839,#178);
#136=LINE('',#840,#179);
#137=LINE('',#846,#180);
#138=LINE('',#849,#181);
#139=LINE('',#851,#182);
#140=LINE('',#852,#183);
#141=LINE('',#858,#184);
#142=LINE('',#860,#185);
#143=LINE('',#861,#186);
#144=VECTOR('',#579,10.);
#145=VECTOR('',#582,10.);
#146=VECTOR('',#585,10.);
#147=VECTOR('',#586,10.);
#148=VECTOR('',#587,10.);
#149=VECTOR('',#594,10.);
#150=VECTOR('',#599,10.);
#151=VECTOR('',#602,10.);
#152=VECTOR('',#605,10.);
#153=VECTOR('',#606,10.);
#154=VECTOR('',#607,10.);
#155=VECTOR('',#614,10.);
#156=VECTOR('',#617,10.);
#157=VECTOR('',#618,10.);
#158=VECTOR('',#619,10.);
#159=VECTOR('',#622,10.);
#160=VECTOR('',#623,10.);
#161=VECTOR('',#624,10.);
#162=VECTOR('',#627,10.);
#163=VECTOR('',#628,10.);
#164=VECTOR('',#629,10.);
#165=VECTOR('',#632,10.);
#166=VECTOR('',#633,10.);
#167=VECTOR('',#634,10.);
#168=VECTOR('',#639,10.);
#169=VECTOR('',#654,10.);
#170=VECTOR('',#657,10.);
#171=VECTOR('',#658,10.);
#172=VECTOR('',#663,1.7645);
#173=VECTOR('',#670,1.7645);
#174=VECTOR('',#677,1.7645);
#175=VECTOR('',#684,10.);
#176=VECTOR('',#687,10.);
#177=VECTOR('',#690,10.);
#178=VECTOR('',#691,10.);
#179=VECTOR('',#692,10.);
#180=VECTOR('',#699,10.);
#181=VECTOR('',#702,10.);
#182=VECTOR('',#703,10.);
#183=VECTOR('',#704,10.);
#184=VECTOR('',#711,10.);
#185=VECTOR('',#714,10.);
#186=VECTOR('',#715,10.);
#187=CIRCLE('',#520,2.);
#188=CIRCLE('',#521,2.);
#189=CIRCLE('',#524,2.);
#190=CIRCLE('',#525,2.);
#191=CIRCLE('',#527,2.);
#192=CIRCLE('',#528,2.);
#193=CIRCLE('',#531,2.);
#194=CIRCLE('',#532,2.);
#195=CIRCLE('',#538,3.07021100817024);
#196=CIRCLE('',#539,3.07021100817024);
#197=CIRCLE('',#541,3.);
#198=CIRCLE('',#542,3.);
#199=CIRCLE('',#544,3.);
#200=CIRCLE('',#545,3.);
#201=CIRCLE('',#548,1.7645);
#202=CIRCLE('',#549,1.7645);
#203=CIRCLE('',#551,1.7645);
#204=CIRCLE('',#552,1.7645);
#205=CIRCLE('',#554,1.7645);
#206=CIRCLE('',#555,1.7645);
#207=CIRCLE('',#557,3.);
#208=CIRCLE('',#558,3.);
#209=CIRCLE('',#561,3.);
#210=CIRCLE('',#562,3.);
#211=CIRCLE('',#565,3.);
#212=CIRCLE('',#566,3.);
#213=VERTEX_POINT('',#725);
#214=VERTEX_POINT('',#726);
#215=VERTEX_POINT('',#728);
#216=VERTEX_POINT('',#730);
#217=VERTEX_POINT('',#734);
#218=VERTEX_POINT('',#736);
#219=VERTEX_POINT('',#740);
#220=VERTEX_POINT('',#742);
#221=VERTEX_POINT('',#746);
#222=VERTEX_POINT('',#747);
#223=VERTEX_POINT('',#749);
#224=VERTEX_POINT('',#751);
#225=VERTEX_POINT('',#755);
#226=VERTEX_POINT('',#757);
#227=VERTEX_POINT('',#761);
#228=VERTEX_POINT('',#763);
#229=VERTEX_POINT('',#767);
#230=VERTEX_POINT('',#769);
#231=VERTEX_POINT('',#773);
#232=VERTEX_POINT('',#775);
#233=VERTEX_POINT('',#779);
#234=VERTEX_POINT('',#781);
#235=VERTEX_POINT('',#785);
#236=VERTEX_POINT('',#787);
#237=VERTEX_POINT('',#791);
#238=VERTEX_POINT('',#793);
#239=VERTEX_POINT('',#800);
#240=VERTEX_POINT('',#802);
#241=VERTEX_POINT('',#809);
#242=VERTEX_POINT('',#811);
#243=VERTEX_POINT('',#815);
#244=VERTEX_POINT('',#817);
#245=VERTEX_POINT('',#821);
#246=VERTEX_POINT('',#823);
#247=VERTEX_POINT('',#827);
#248=VERTEX_POINT('',#828);
#249=VERTEX_POINT('',#830);
#250=VERTEX_POINT('',#832);
#251=VERTEX_POINT('',#836);
#252=VERTEX_POINT('',#838);
#253=VERTEX_POINT('',#842);
#254=VERTEX_POINT('',#844);
#255=VERTEX_POINT('',#848);
#256=VERTEX_POINT('',#850);
#257=VERTEX_POINT('',#854);
#258=VERTEX_POINT('',#856);
#259=EDGE_CURVE('',#213,#214,#187,.T.);
#260=EDGE_CURVE('',#214,#215,#101,.T.);
#261=EDGE_CURVE('',#215,#216,#188,.T.);
#262=EDGE_CURVE('',#216,#213,#102,.T.);
#263=EDGE_CURVE('',#217,#214,#103,.T.);
#264=EDGE_CURVE('',#218,#217,#104,.T.);
#265=EDGE_CURVE('',#215,#218,#105,.T.);
#266=EDGE_CURVE('',#219,#218,#189,.T.);
#267=EDGE_CURVE('',#217,#220,#190,.T.);
#268=EDGE_CURVE('',#220,#219,#106,.T.);
#269=EDGE_CURVE('',#221,#222,#191,.T.);
#270=EDGE_CURVE('',#222,#223,#107,.T.);
#271=EDGE_CURVE('',#223,#224,#192,.T.);
#272=EDGE_CURVE('',#224,#221,#108,.T.);
#273=EDGE_CURVE('',#225,#222,#109,.T.);
#274=EDGE_CURVE('',#226,#225,#110,.T.);
#275=EDGE_CURVE('',#223,#226,#111,.T.);
#276=EDGE_CURVE('',#227,#226,#193,.T.);
#277=EDGE_CURVE('',#225,#228,#194,.T.);
#278=EDGE_CURVE('',#228,#227,#112,.T.);
#279=EDGE_CURVE('',#229,#224,#113,.T.);
#280=EDGE_CURVE('',#230,#229,#114,.T.);
#281=EDGE_CURVE('',#221,#230,#115,.T.);
#282=EDGE_CURVE('',#231,#220,#116,.T.);
#283=EDGE_CURVE('',#231,#232,#117,.T.);
#284=EDGE_CURVE('',#219,#232,#118,.T.);
#285=EDGE_CURVE('',#233,#216,#119,.T.);
#286=EDGE_CURVE('',#234,#233,#120,.T.);
#287=EDGE_CURVE('',#213,#234,#121,.T.);
#288=EDGE_CURVE('',#235,#228,#122,.T.);
#289=EDGE_CURVE('',#235,#236,#123,.T.);
#290=EDGE_CURVE('',#227,#236,#124,.T.);
#291=EDGE_CURVE('',#237,#229,#195,.T.);
#292=EDGE_CURVE('',#238,#237,#125,.T.);
#293=EDGE_CURVE('',#230,#238,#196,.T.);
#294=EDGE_CURVE('',#232,#233,#197,.T.);
#295=EDGE_CURVE('',#234,#231,#198,.T.);
#296=EDGE_CURVE('',#236,#239,#199,.T.);
#297=EDGE_CURVE('',#240,#235,#200,.T.);
#298=EDGE_CURVE('',#240,#239,#126,.T.);
#299=EDGE_CURVE('',#239,#237,#127,.T.);
#300=EDGE_CURVE('',#238,#240,#128,.T.);
#301=EDGE_CURVE('',#241,#241,#201,.T.);
#302=EDGE_CURVE('',#241,#242,#129,.T.);
#303=EDGE_CURVE('',#242,#242,#202,.T.);
#304=EDGE_CURVE('',#243,#243,#203,.T.);
#305=EDGE_CURVE('',#243,#244,#130,.T.);
#306=EDGE_CURVE('',#244,#244,#204,.T.);
#307=EDGE_CURVE('',#245,#245,#205,.T.);
#308=EDGE_CURVE('',#245,#246,#131,.T.);
#309=EDGE_CURVE('',#246,#246,#206,.T.);
#310=EDGE_CURVE('',#247,#248,#207,.T.);
#311=EDGE_CURVE('',#248,#249,#132,.T.);
#312=EDGE_CURVE('',#250,#249,#208,.T.);
#313=EDGE_CURVE('',#247,#250,#133,.T.);
#314=EDGE_CURVE('',#247,#251,#134,.T.);
#315=EDGE_CURVE('',#252,#250,#135,.T.);
#316=EDGE_CURVE('',#251,#252,#136,.T.);
#317=EDGE_CURVE('',#253,#251,#209,.T.);
#318=EDGE_CURVE('',#254,#252,#210,.T.);
#319=EDGE_CURVE('',#253,#254,#137,.T.);
#320=EDGE_CURVE('',#255,#253,#138,.T.);
#321=EDGE_CURVE('',#256,#254,#139,.T.);
#322=EDGE_CURVE('',#255,#256,#140,.T.);
#323=EDGE_CURVE('',#257,#255,#211,.T.);
#324=EDGE_CURVE('',#258,#256,#212,.T.);
#325=EDGE_CURVE('',#257,#258,#141,.T.);
#326=EDGE_CURVE('',#248,#257,#142,.T.);
#327=EDGE_CURVE('',#249,#258,#143,.T.);
#328=ORIENTED_EDGE('',*,*,#259,.T.);
#329=ORIENTED_EDGE('',*,*,#260,.T.);
#330=ORIENTED_EDGE('',*,*,#261,.T.);
#331=ORIENTED_EDGE('',*,*,#262,.T.);
#332=ORIENTED_EDGE('',*,*,#260,.F.);
#333=ORIENTED_EDGE('',*,*,#263,.F.);
#334=ORIENTED_EDGE('',*,*,#264,.F.);
#335=ORIENTED_EDGE('',*,*,#265,.F.);
#336=ORIENTED_EDGE('',*,*,#266,.T.);
#337=ORIENTED_EDGE('',*,*,#264,.T.);
#338=ORIENTED_EDGE('',*,*,#267,.T.);
#339=ORIENTED_EDGE('',*,*,#268,.T.);
#340=ORIENTED_EDGE('',*,*,#269,.T.);
#341=ORIENTED_EDGE('',*,*,#270,.T.);
#342=ORIENTED_EDGE('',*,*,#271,.T.);
#343=ORIENTED_EDGE('',*,*,#272,.T.);
#344=ORIENTED_EDGE('',*,*,#270,.F.);
#345=ORIENTED_EDGE('',*,*,#273,.F.);
#346=ORIENTED_EDGE('',*,*,#274,.F.);
#347=ORIENTED_EDGE('',*,*,#275,.F.);
#348=ORIENTED_EDGE('',*,*,#276,.T.);
#349=ORIENTED_EDGE('',*,*,#274,.T.);
#350=ORIENTED_EDGE('',*,*,#277,.T.);
#351=ORIENTED_EDGE('',*,*,#278,.T.);
#352=ORIENTED_EDGE('',*,*,#272,.F.);
#353=ORIENTED_EDGE('',*,*,#279,.F.);
#354=ORIENTED_EDGE('',*,*,#280,.F.);
#355=ORIENTED_EDGE('',*,*,#281,.F.);
#356=ORIENTED_EDGE('',*,*,#268,.F.);
#357=ORIENTED_EDGE('',*,*,#282,.F.);
#358=ORIENTED_EDGE('',*,*,#283,.T.);
#359=ORIENTED_EDGE('',*,*,#284,.F.);
#360=ORIENTED_EDGE('',*,*,#262,.F.);
#361=ORIENTED_EDGE('',*,*,#285,.F.);
#362=ORIENTED_EDGE('',*,*,#286,.F.);
#363=ORIENTED_EDGE('',*,*,#287,.F.);
#364=ORIENTED_EDGE('',*,*,#278,.F.);
#365=ORIENTED_EDGE('',*,*,#288,.F.);
#366=ORIENTED_EDGE('',*,*,#289,.T.);
#367=ORIENTED_EDGE('',*,*,#290,.F.);
#368=ORIENTED_EDGE('',*,*,#291,.F.);
#369=ORIENTED_EDGE('',*,*,#292,.F.);
#370=ORIENTED_EDGE('',*,*,#293,.F.);
#371=ORIENTED_EDGE('',*,*,#280,.T.);
#372=ORIENTED_EDGE('',*,*,#294,.F.);
#373=ORIENTED_EDGE('',*,*,#283,.F.);
#374=ORIENTED_EDGE('',*,*,#295,.F.);
#375=ORIENTED_EDGE('',*,*,#286,.T.);
#376=ORIENTED_EDGE('',*,*,#296,.F.);
#377=ORIENTED_EDGE('',*,*,#289,.F.);
#378=ORIENTED_EDGE('',*,*,#297,.F.);
#379=ORIENTED_EDGE('',*,*,#298,.T.);
#380=ORIENTED_EDGE('',*,*,#299,.F.);
#381=ORIENTED_EDGE('',*,*,#298,.F.);
#382=ORIENTED_EDGE('',*,*,#300,.F.);
#383=ORIENTED_EDGE('',*,*,#292,.T.);
#384=ORIENTED_EDGE('',*,*,#301,.F.);
#385=ORIENTED_EDGE('',*,*,#302,.T.);
#386=ORIENTED_EDGE('',*,*,#303,.T.);
#387=ORIENTED_EDGE('',*,*,#302,.F.);
#388=ORIENTED_EDGE('',*,*,#304,.F.);
#389=ORIENTED_EDGE('',*,*,#305,.T.);
#390=ORIENTED_EDGE('',*,*,#306,.T.);
#391=ORIENTED_EDGE('',*,*,#305,.F.);
#392=ORIENTED_EDGE('',*,*,#307,.F.);
#393=ORIENTED_EDGE('',*,*,#308,.T.);
#394=ORIENTED_EDGE('',*,*,#309,.T.);
#395=ORIENTED_EDGE('',*,*,#308,.F.);
#396=ORIENTED_EDGE('',*,*,#310,.T.);
#397=ORIENTED_EDGE('',*,*,#311,.T.);
#398=ORIENTED_EDGE('',*,*,#312,.F.);
#399=ORIENTED_EDGE('',*,*,#313,.F.);
#400=ORIENTED_EDGE('',*,*,#314,.F.);
#401=ORIENTED_EDGE('',*,*,#313,.T.);
#402=ORIENTED_EDGE('',*,*,#315,.F.);
#403=ORIENTED_EDGE('',*,*,#316,.F.);
#404=ORIENTED_EDGE('',*,*,#317,.T.);
#405=ORIENTED_EDGE('',*,*,#316,.T.);
#406=ORIENTED_EDGE('',*,*,#318,.F.);
#407=ORIENTED_EDGE('',*,*,#319,.F.);
#408=ORIENTED_EDGE('',*,*,#320,.T.);
#409=ORIENTED_EDGE('',*,*,#319,.T.);
#410=ORIENTED_EDGE('',*,*,#321,.F.);
#411=ORIENTED_EDGE('',*,*,#322,.F.);
#412=ORIENTED_EDGE('',*,*,#323,.T.);
#413=ORIENTED_EDGE('',*,*,#322,.T.);
#414=ORIENTED_EDGE('',*,*,#324,.F.);
#415=ORIENTED_EDGE('',*,*,#325,.F.);
#416=ORIENTED_EDGE('',*,*,#326,.T.);
#417=ORIENTED_EDGE('',*,*,#325,.T.);
#418=ORIENTED_EDGE('',*,*,#327,.F.);
#419=ORIENTED_EDGE('',*,*,#311,.F.);
#420=ORIENTED_EDGE('',*,*,#327,.T.);
#421=ORIENTED_EDGE('',*,*,#324,.T.);
#422=ORIENTED_EDGE('',*,*,#321,.T.);
#423=ORIENTED_EDGE('',*,*,#318,.T.);
#424=ORIENTED_EDGE('',*,*,#315,.T.);
#425=ORIENTED_EDGE('',*,*,#312,.T.);
#426=ORIENTED_EDGE('',*,*,#281,.T.);
#427=ORIENTED_EDGE('',*,*,#293,.T.);
#428=ORIENTED_EDGE('',*,*,#300,.T.);
#429=ORIENTED_EDGE('',*,*,#297,.T.);
#430=ORIENTED_EDGE('',*,*,#288,.T.);
#431=ORIENTED_EDGE('',*,*,#277,.F.);
#432=ORIENTED_EDGE('',*,*,#273,.T.);
#433=ORIENTED_EDGE('',*,*,#269,.F.);
#434=ORIENTED_EDGE('',*,*,#263,.T.);
#435=ORIENTED_EDGE('',*,*,#259,.F.);
#436=ORIENTED_EDGE('',*,*,#287,.T.);
#437=ORIENTED_EDGE('',*,*,#295,.T.);
#438=ORIENTED_EDGE('',*,*,#282,.T.);
#439=ORIENTED_EDGE('',*,*,#267,.F.);
#440=ORIENTED_EDGE('',*,*,#307,.T.);
#441=ORIENTED_EDGE('',*,*,#304,.T.);
#442=ORIENTED_EDGE('',*,*,#301,.T.);
#443=ORIENTED_EDGE('',*,*,#326,.F.);
#444=ORIENTED_EDGE('',*,*,#310,.F.);
#445=ORIENTED_EDGE('',*,*,#314,.T.);
#446=ORIENTED_EDGE('',*,*,#317,.F.);
#447=ORIENTED_EDGE('',*,*,#320,.F.);
#448=ORIENTED_EDGE('',*,*,#323,.F.);
#449=ORIENTED_EDGE('',*,*,#284,.T.);
#450=ORIENTED_EDGE('',*,*,#294,.T.);
#451=ORIENTED_EDGE('',*,*,#285,.T.);
#452=ORIENTED_EDGE('',*,*,#261,.F.);
#453=ORIENTED_EDGE('',*,*,#265,.T.);
#454=ORIENTED_EDGE('',*,*,#266,.F.);
#455=ORIENTED_EDGE('',*,*,#275,.T.);
#456=ORIENTED_EDGE('',*,*,#276,.F.);
#457=ORIENTED_EDGE('',*,*,#290,.T.);
#458=ORIENTED_EDGE('',*,*,#296,.T.);
#459=ORIENTED_EDGE('',*,*,#299,.T.);
#460=ORIENTED_EDGE('',*,*,#291,.T.);
#461=ORIENTED_EDGE('',*,*,#279,.T.);
#462=ORIENTED_EDGE('',*,*,#271,.F.);
#463=ORIENTED_EDGE('',*,*,#309,.F.);
#464=ORIENTED_EDGE('',*,*,#306,.F.);
#465=ORIENTED_EDGE('',*,*,#303,.F.);
#466=CYLINDRICAL_SURFACE('',#519,2.);
#467=CYLINDRICAL_SURFACE('',#523,2.);
#468=CYLINDRICAL_SURFACE('',#526,2.);
#469=CYLINDRICAL_SURFACE('',#530,2.);
#470=CYLINDRICAL_SURFACE('',#537,3.07021100817024);
#471=CYLINDRICAL_SURFACE('',#540,3.);
#472=CYLINDRICAL_SURFACE('',#543,3.);
#473=CYLINDRICAL_SURFACE('',#547,1.7645);
#474=CYLINDRICAL_SURFACE('',#550,1.7645);
#475=CYLINDRICAL_SURFACE('',#553,1.7645);
#476=CYLINDRICAL_SURFACE('',#556,3.);
#477=CYLINDRICAL_SURFACE('',#560,3.);
#478=CYLINDRICAL_SURFACE('',#564,3.);
#479=ADVANCED_FACE('',(#41),#466,.F.);
#480=ADVANCED_FACE('',(#42),#29,.T.);
#481=ADVANCED_FACE('',(#43),#467,.F.);
#482=ADVANCED_FACE('',(#44),#468,.F.);
#483=ADVANCED_FACE('',(#45),#30,.T.);
#484=ADVANCED_FACE('',(#46),#469,.F.);
#485=ADVANCED_FACE('',(#47),#31,.F.);
#486=ADVANCED_FACE('',(#48),#32,.F.);
#487=ADVANCED_FACE('',(#49),#33,.F.);
#488=ADVANCED_FACE('',(#50),#34,.F.);
#489=ADVANCED_FACE('',(#51),#470,.T.);
#490=ADVANCED_FACE('',(#52),#471,.T.);
#491=ADVANCED_FACE('',(#53),#472,.T.);
#492=ADVANCED_FACE('',(#54),#35,.F.);
#493=ADVANCED_FACE('',(#55),#473,.F.);
#494=ADVANCED_FACE('',(#56),#474,.F.);
#495=ADVANCED_FACE('',(#57),#475,.F.);
#496=ADVANCED_FACE('',(#58),#476,.T.);
#497=ADVANCED_FACE('',(#59),#36,.T.);
#498=ADVANCED_FACE('',(#60),#477,.T.);
#499=ADVANCED_FACE('',(#61),#37,.T.);
#500=ADVANCED_FACE('',(#62),#478,.T.);
#501=ADVANCED_FACE('',(#63),#38,.T.);
#502=ADVANCED_FACE('',(#64,#19,#20,#21,#22,#23),#39,.T.);
#503=ADVANCED_FACE('',(#65,#24,#25,#26,#27,#28),#40,.F.);
#504=CLOSED_SHELL('',(#479,#480,#481,#482,#483,#484,#485,#486,#487,#488,
#489,#490,#491,#492,#493,#494,#495,#496,#497,#498,#499,#500,#501,#502,#503));
#505=DERIVED_UNIT_ELEMENT(#507,1.);
#506=DERIVED_UNIT_ELEMENT(#872,-3.);
#507=(
MASS_UNIT()
NAMED_UNIT(*)
SI_UNIT(.KILO.,.GRAM.)
);
#508=DERIVED_UNIT((#505,#506));
#509=MEASURE_REPRESENTATION_ITEM('density measure',
POSITIVE_RATIO_MEASURE(2700.),#508);
#510=PROPERTY_DEFINITION_REPRESENTATION(#515,#512);
#511=PROPERTY_DEFINITION_REPRESENTATION(#516,#513);
#512=REPRESENTATION('material name',(#514),#869);
#513=REPRESENTATION('density',(#509),#869);
#514=DESCRIPTIVE_REPRESENTATION_ITEM('Aluminium','Aluminium');
#515=PROPERTY_DEFINITION('material property','material name',#884);
#516=PROPERTY_DEFINITION('material property','density of part',#884);
#517=AXIS2_PLACEMENT_3D('',#722,#571,#572);
#518=AXIS2_PLACEMENT_3D('',#723,#573,#574);
#519=AXIS2_PLACEMENT_3D('',#724,#575,#576);
#520=AXIS2_PLACEMENT_3D('',#727,#577,#578);
#521=AXIS2_PLACEMENT_3D('',#731,#580,#581);
#522=AXIS2_PLACEMENT_3D('',#733,#583,#584);
#523=AXIS2_PLACEMENT_3D('',#739,#588,#589);
#524=AXIS2_PLACEMENT_3D('',#741,#590,#591);
#525=AXIS2_PLACEMENT_3D('',#743,#592,#593);
#526=AXIS2_PLACEMENT_3D('',#745,#595,#596);
#527=AXIS2_PLACEMENT_3D('',#748,#597,#598);
#528=AXIS2_PLACEMENT_3D('',#752,#600,#601);
#529=AXIS2_PLACEMENT_3D('',#754,#603,#604);
#530=AXIS2_PLACEMENT_3D('',#760,#608,#609);
#531=AXIS2_PLACEMENT_3D('',#762,#610,#611);
#532=AXIS2_PLACEMENT_3D('',#764,#612,#613);
#533=AXIS2_PLACEMENT_3D('',#766,#615,#616);
#534=AXIS2_PLACEMENT_3D('',#772,#620,#621);
#535=AXIS2_PLACEMENT_3D('',#778,#625,#626);
#536=AXIS2_PLACEMENT_3D('',#784,#630,#631);
#537=AXIS2_PLACEMENT_3D('',#790,#635,#636);
#538=AXIS2_PLACEMENT_3D('',#792,#637,#638);
#539=AXIS2_PLACEMENT_3D('',#795,#640,#641);
#540=AXIS2_PLACEMENT_3D('',#796,#642,#643);
#541=AXIS2_PLACEMENT_3D('',#797,#644,#645);
#542=AXIS2_PLACEMENT_3D('',#798,#646,#647);
#543=AXIS2_PLACEMENT_3D('',#799,#648,#649);
#544=AXIS2_PLACEMENT_3D('',#801,#650,#651);
#545=AXIS2_PLACEMENT_3D('',#803,#652,#653);
#546=AXIS2_PLACEMENT_3D('',#805,#655,#656);
#547=AXIS2_PLACEMENT_3D('',#808,#659,#660);
#548=AXIS2_PLACEMENT_3D('',#810,#661,#662);
#549=AXIS2_PLACEMENT_3D('',#813,#664,#665);
#550=AXIS2_PLACEMENT_3D('',#814,#666,#667);
#551=AXIS2_PLACEMENT_3D('',#816,#668,#669);
#552=AXIS2_PLACEMENT_3D('',#819,#671,#672);
#553=AXIS2_PLACEMENT_3D('',#820,#673,#674);
#554=AXIS2_PLACEMENT_3D('',#822,#675,#676);
#555=AXIS2_PLACEMENT_3D('',#825,#678,#679);
#556=AXIS2_PLACEMENT_3D('',#826,#680,#681);
#557=AXIS2_PLACEMENT_3D('',#829,#682,#683);
#558=AXIS2_PLACEMENT_3D('',#833,#685,#686);
#559=AXIS2_PLACEMENT_3D('',#835,#688,#689);
#560=AXIS2_PLACEMENT_3D('',#841,#693,#694);
#561=AXIS2_PLACEMENT_3D('',#843,#695,#696);
#562=AXIS2_PLACEMENT_3D('',#845,#697,#698);
#563=AXIS2_PLACEMENT_3D('',#847,#700,#701);
#564=AXIS2_PLACEMENT_3D('',#853,#705,#706);
#565=AXIS2_PLACEMENT_3D('',#855,#707,#708);
#566=AXIS2_PLACEMENT_3D('',#857,#709,#710);
#567=AXIS2_PLACEMENT_3D('',#859,#712,#713);
#568=AXIS2_PLACEMENT_3D('',#862,#716,#717);
#569=AXIS2_PLACEMENT_3D('',#863,#718,#719);
#570=AXIS2_PLACEMENT_3D('',#864,#720,#721);
#571=DIRECTION('axis',(0.,0.,1.));
#572=DIRECTION('refdir',(1.,0.,0.));
#573=DIRECTION('axis',(0.,0.,1.));
#574=DIRECTION('refdir',(1.,0.,0.));
#575=DIRECTION('center_axis',(0.,0.,1.));
#576=DIRECTION('ref_axis',(-0.791822484076847,0.610751302667764,0.));
#577=DIRECTION('center_axis',(0.,0.,-1.));
#578=DIRECTION('ref_axis',(-0.791822484076847,0.610751302667764,0.));
#579=DIRECTION('',(0.,0.,1.));
#580=DIRECTION('center_axis',(0.,0.,1.));
#581=DIRECTION('ref_axis',(-0.791822484076847,0.610751302667764,0.));
#582=DIRECTION('',(0.,0.,-1.));
#583=DIRECTION('center_axis',(0.00269568321486611,-0.999996366639402,0.));
#584=DIRECTION('ref_axis',(0.999996366639402,0.00269568321486611,0.));
#585=DIRECTION('',(-0.999996366639402,-0.00269568321486611,0.));
#586=DIRECTION('',(0.,0.,-1.));
#587=DIRECTION('',(0.999996366639402,0.00269568321486611,0.));
#588=DIRECTION('center_axis',(0.,0.,-1.));
#589=DIRECTION('ref_axis',(0.792424653660356,0.609969809311301,0.));
#590=DIRECTION('center_axis',(0.,0.,1.));
#591=DIRECTION('ref_axis',(0.792424653660356,0.609969809311301,0.));
#592=DIRECTION('center_axis',(0.,0.,-1.));
#593=DIRECTION('ref_axis',(0.792424653660356,0.609969809311301,0.));
#594=DIRECTION('',(0.,0.,1.));
#595=DIRECTION('center_axis',(0.,0.,1.));
#596=DIRECTION('ref_axis',(0.609969809311302,-0.792424653660355,0.));
#597=DIRECTION('center_axis',(0.,0.,-1.));
#598=DIRECTION('ref_axis',(0.609969809311302,-0.792424653660355,0.));
#599=DIRECTION('',(0.,0.,1.));
#600=DIRECTION('center_axis',(0.,0.,1.));
#601=DIRECTION('ref_axis',(0.609969809311302,-0.792424653660355,0.));
#602=DIRECTION('',(0.,0.,-1.));
#603=DIRECTION('center_axis',(-0.00269568321486616,0.999996366639402,0.));
#604=DIRECTION('ref_axis',(-0.999996366639402,-0.00269568321486616,0.));
#605=DIRECTION('',(0.999996366639402,0.00269568321486616,0.));
#606=DIRECTION('',(0.,0.,-1.));
#607=DIRECTION('',(-0.999996366639402,-0.00269568321486616,0.));
#608=DIRECTION('center_axis',(0.,0.,-1.));
#609=DIRECTION('ref_axis',(-0.610751302667764,-0.791822484076847,0.));
#610=DIRECTION('center_axis',(0.,0.,1.));
#611=DIRECTION('ref_axis',(-0.610751302667764,-0.791822484076847,0.));
#612=DIRECTION('center_axis',(0.,0.,-1.));
#613=DIRECTION('ref_axis',(-0.610751302667764,-0.791822484076847,0.));
#614=DIRECTION('',(0.,0.,1.));
#615=DIRECTION('center_axis',(0.966016963026996,-0.25847867831622,0.));
#616=DIRECTION('ref_axis',(0.25847867831622,0.966016963026996,0.));
#617=DIRECTION('',(-0.25847867831622,-0.966016963026996,0.));
#618=DIRECTION('',(0.,0.,1.));
#619=DIRECTION('',(0.25847867831622,0.966016963026996,0.));
#620=DIRECTION('center_axis',(0.966016963026996,-0.25847867831622,0.));
#621=DIRECTION('ref_axis',(0.25847867831622,0.966016963026996,0.));
#622=DIRECTION('',(0.25847867831622,0.966016963026996,0.));
#623=DIRECTION('',(0.,0.,1.));
#624=DIRECTION('',(-0.25847867831622,-0.966016963026996,0.));
#625=DIRECTION('center_axis',(-0.967894324083327,-0.251357469368386,0.));
#626=DIRECTION('ref_axis',(0.251357469368386,-0.967894324083327,0.));
#627=DIRECTION('',(-0.251357469368386,0.967894324083327,0.));
#628=DIRECTION('',(0.,0.,1.));
#629=DIRECTION('',(0.251357469368386,-0.967894324083327,0.));
#630=DIRECTION('center_axis',(-0.967894324083327,-0.251357469368386,0.));
#631=DIRECTION('ref_axis',(0.251357469368386,-0.967894324083327,0.));
#632=DIRECTION('',(0.251357469368386,-0.967894324083327,0.));
#633=DIRECTION('',(0.,0.,1.));
#634=DIRECTION('',(-0.251357469368386,0.967894324083327,0.));
#635=DIRECTION('center_axis',(0.,0.,1.));
#636=DIRECTION('ref_axis',(-1.,0.,0.));
#637=DIRECTION('center_axis',(0.,0.,1.));
#638=DIRECTION('ref_axis',(-1.,0.,0.));
#639=DIRECTION('',(0.,0.,1.));
#640=DIRECTION('center_axis',(0.,0.,-1.));
#641=DIRECTION('ref_axis',(-1.,0.,0.));
#642=DIRECTION('center_axis',(0.,0.,1.));
#643=DIRECTION('ref_axis',(-1.,0.,0.));
#644=DIRECTION('center_axis',(0.,0.,1.));
#645=DIRECTION('ref_axis',(-1.,0.,0.));
#646=DIRECTION('center_axis',(0.,0.,-1.));
#647=DIRECTION('ref_axis',(-1.,0.,0.));
#648=DIRECTION('center_axis',(0.,0.,1.));
#649=DIRECTION('ref_axis',(0.791822484076847,-0.610751302667764,0.));
#650=DIRECTION('center_axis',(0.,0.,1.));
#651=DIRECTION('ref_axis',(-1.,0.,0.));
#652=DIRECTION('center_axis',(0.,0.,-1.));
#653=DIRECTION('ref_axis',(-1.,0.,0.));
#654=DIRECTION('',(0.,0.,1.));
#655=DIRECTION('center_axis',(-0.00269568321486617,0.999996366639402,0.));
#656=DIRECTION('ref_axis',(-0.999996366639402,-0.00269568321486617,0.));
#657=DIRECTION('',(0.999996366639402,0.00269568321486617,0.));
#658=DIRECTION('',(-0.999996366639402,-0.00269568321486617,0.));
#659=DIRECTION('center_axis',(0.,0.,-1.));
#660=DIRECTION('ref_axis',(-1.,0.,0.));
#661=DIRECTION('center_axis',(0.,0.,1.));
#662=DIRECTION('ref_axis',(-1.,0.,0.));
#663=DIRECTION('',(0.,0.,1.));
#664=DIRECTION('center_axis',(0.,0.,1.));
#665=DIRECTION('ref_axis',(-1.,0.,0.));
#666=DIRECTION('center_axis',(0.,0.,-1.));
#667=DIRECTION('ref_axis',(-1.,0.,0.));
#668=DIRECTION('center_axis',(0.,0.,1.));
#669=DIRECTION('ref_axis',(-1.,0.,0.));
#670=DIRECTION('',(0.,0.,1.));
#671=DIRECTION('center_axis',(0.,0.,1.));
#672=DIRECTION('ref_axis',(-1.,0.,0.));
#673=DIRECTION('center_axis',(0.,0.,-1.));
#674=DIRECTION('ref_axis',(-1.,0.,0.));
#675=DIRECTION('center_axis',(0.,0.,1.));
#676=DIRECTION('ref_axis',(-1.,0.,0.));
#677=DIRECTION('',(0.,0.,1.));
#678=DIRECTION('center_axis',(0.,0.,1.));
#679=DIRECTION('ref_axis',(-1.,0.,0.));
#680=DIRECTION('center_axis',(0.,0.,-1.));
#681=DIRECTION('ref_axis',(0.770741301283049,0.637148213916129,0.));
#682=DIRECTION('center_axis',(0.,0.,-1.));
#683=DIRECTION('ref_axis',(-1.,0.,0.));
#684=DIRECTION('',(0.,0.,-1.));
#685=DIRECTION('center_axis',(0.,0.,-1.));
#686=DIRECTION('ref_axis',(-1.,0.,0.));
#687=DIRECTION('',(0.,0.,-1.));
#688=DIRECTION('center_axis',(-0.00269568321486376,0.999996366639402,0.));
#689=DIRECTION('ref_axis',(0.999996366639402,0.00269568321486376,0.));
#690=DIRECTION('',(-0.999996366639402,-0.00269568321486376,0.));
#691=DIRECTION('',(0.999996366639402,0.00269568321486376,0.));
#692=DIRECTION('',(0.,0.,-1.));
#693=DIRECTION('center_axis',(0.,0.,-1.));
#694=DIRECTION('ref_axis',(-1.,0.,0.));
#695=DIRECTION('center_axis',(0.,0.,-1.));
#696=DIRECTION('ref_axis',(-1.,0.,0.));
#697=DIRECTION('center_axis',(0.,0.,-1.));
#698=DIRECTION('ref_axis',(-1.,0.,0.));
#699=DIRECTION('',(0.,0.,-1.));
#700=DIRECTION('center_axis',(-0.967894324083372,-0.251357469368213,0.));
#701=DIRECTION('ref_axis',(-0.251357469368213,0.967894324083372,0.));
#702=DIRECTION('',(-0.251357469368213,0.967894324083372,0.));
#703=DIRECTION('',(-0.251357469368213,0.967894324083372,0.));
#704=DIRECTION('',(0.,0.,-1.));
#705=DIRECTION('center_axis',(0.,0.,-1.));
#706=DIRECTION('ref_axis',(-1.,0.,0.));
#707=DIRECTION('center_axis',(0.,0.,-1.));
#708=DIRECTION('ref_axis',(-1.,0.,0.));
#709=DIRECTION('center_axis',(0.,0.,-1.));
#710=DIRECTION('ref_axis',(-1.,0.,0.));
#711=DIRECTION('',(0.,0.,-1.));
#712=DIRECTION('center_axis',(0.966016963026984,-0.258478678316264,0.));
#713=DIRECTION('ref_axis',(-0.258478678316264,-0.966016963026984,0.));
#714=DIRECTION('',(-0.258478678316264,-0.966016963026984,0.));
#715=DIRECTION('',(-0.258478678316264,-0.966016963026984,0.));
#716=DIRECTION('center_axis',(0.,0.,-1.));
#717=DIRECTION('ref_axis',(-1.,0.,0.));
#718=DIRECTION('center_axis',(0.,0.,-1.));
#719=DIRECTION('ref_axis',(-1.,0.,0.));
#720=DIRECTION('',(0.,0.,1.));
#721=DIRECTION('',(1.,0.,0.));
#722=CARTESIAN_POINT('',(0.,0.,0.));
#723=CARTESIAN_POINT('',(0.,0.,0.));
#724=CARTESIAN_POINT('Origin',(-5.72020764765579,-6.12460388586645,-12.));
#725=CARTESIAN_POINT('',(-7.65599629582244,-6.62731882460322,-12.));
#726=CARTESIAN_POINT('',(-5.72559901408552,-4.12461115258764,-12.));
#727=CARTESIAN_POINT('Origin',(-5.72020764765579,-6.12460388586645,-12.));
#728=CARTESIAN_POINT('',(-5.72559901408552,-4.12461115258764,-11.));
#729=CARTESIAN_POINT('',(-5.72559901408552,-4.12461115258764,-12.));
#730=CARTESIAN_POINT('',(-7.65599629582244,-6.62731882460322,-11.));
#731=CARTESIAN_POINT('Origin',(-5.72020764765579,-6.12460388586645,-11.));
#732=CARTESIAN_POINT('',(-7.65599629582244,-6.62731882460322,-12.));
#733=CARTESIAN_POINT('Origin',(-8.30413223610253,-4.13156208656846,-12.));
#734=CARTESIAN_POINT('',(5.9640970098517,-4.09309932073518,-12.));
#735=CARTESIAN_POINT('',(8.5768711669998,-4.0860560837049,-12.));
#736=CARTESIAN_POINT('',(5.9640970098517,-4.09309932073518,-11.));
#737=CARTESIAN_POINT('',(5.9640970098517,-4.09309932073518,-12.));
#738=CARTESIAN_POINT('',(8.5768711669998,-4.0860560837049,-11.));
#739=CARTESIAN_POINT('Origin',(5.96948837628144,-6.09309205401398,-12.));
#740=CARTESIAN_POINT('',(7.90152230233543,-6.61004941064642,-11.));
#741=CARTESIAN_POINT('Origin',(5.96948837628144,-6.09309205401398,-11.));
#742=CARTESIAN_POINT('',(7.90152230233543,-6.61004941064642,-12.));
#743=CARTESIAN_POINT('Origin',(5.96948837628144,-6.09309205401398,-12.));
#744=CARTESIAN_POINT('',(7.90152230233543,-6.61004941064642,-12.));
#745=CARTESIAN_POINT('Origin',(8.11161383299434,1.9127115255951,-12.));
#746=CARTESIAN_POINT('',(10.0436477590483,1.39575416896266,-12.));
#747=CARTESIAN_POINT('',(8.11700519942407,-0.0872812076837063,-12.));
#748=CARTESIAN_POINT('Origin',(8.11161383299434,1.9127115255951,-12.));
#749=CARTESIAN_POINT('',(8.11700519942407,-0.0872812076837063,-11.));
#750=CARTESIAN_POINT('',(8.11700519942407,-0.0872812076837065,-12.));
#751=CARTESIAN_POINT('',(10.0436477590483,1.39575416896266,-11.));
#752=CARTESIAN_POINT('Origin',(8.11161383299434,1.9127115255951,-11.));
#753=CARTESIAN_POINT('',(10.0436477590483,1.39575416896266,-12.));
#754=CARTESIAN_POINT('Origin',(9.64793389535625,-0.0831542939003591,-12.));
#755=CARTESIAN_POINT('',(-7.79093169127761,-0.130164121952212,-12.));
#756=CARTESIAN_POINT('',(-9.34218994112831,-0.134345837971939,-12.));
#757=CARTESIAN_POINT('',(-7.79093169127761,-0.130164121952212,-11.));
#758=CARTESIAN_POINT('',(-7.79093169127761,-0.130164121952212,-12.));
#759=CARTESIAN_POINT('',(-9.34218994112831,-0.134345837971939,-11.));
#760=CARTESIAN_POINT('Origin',(-7.79632305770734,1.86982861132659,-12.));
#761=CARTESIAN_POINT('',(-9.732111705874,1.36711367258982,-11.));
#762=CARTESIAN_POINT('Origin',(-7.79632305770734,1.86982861132659,-11.));
#763=CARTESIAN_POINT('',(-9.732111705874,1.36711367258982,-12.));
#764=CARTESIAN_POINT('Origin',(-7.79632305770734,1.86982861132659,-12.));
#765=CARTESIAN_POINT('',(-9.732111705874,1.36711367258982,-12.));
#766=CARTESIAN_POINT('Origin',(0.779722499743054,-33.2264785157577,-12.));
#767=CARTESIAN_POINT('',(11.5596489001677,7.0615322046192,-11.));
#768=CARTESIAN_POINT('',(3.2884752106472,-23.8504723764487,-11.));
#769=CARTESIAN_POINT('',(11.5596489001677,7.0615322046192,-12.));
#770=CARTESIAN_POINT('',(11.5596489001677,7.0615322046192,-12.));
#771=CARTESIAN_POINT('',(3.2884752106472,-23.8504723764487,-12.));
#772=CARTESIAN_POINT('Origin',(0.779722499743054,-33.2264785157577,-12.));
#773=CARTESIAN_POINT('',(0.779722499743054,-33.2264785157577,-12.));
#774=CARTESIAN_POINT('',(3.2884752106472,-23.8504723764487,-12.));
#775=CARTESIAN_POINT('',(0.779722499743054,-33.2264785157577,-11.));
#776=CARTESIAN_POINT('',(0.779722499743054,-33.2264785157577,-12.));
#777=CARTESIAN_POINT('',(3.2884752106472,-23.8504723764487,-11.));
#778=CARTESIAN_POINT('Origin',(-11.2459275918949,7.19631702774998,-12.));
#779=CARTESIAN_POINT('',(-0.749785943310764,-33.2208464325888,-11.));
#780=CARTESIAN_POINT('',(-8.43066372918132,-3.64433123452144,-11.));
#781=CARTESIAN_POINT('',(-0.749785943310764,-33.2208464325888,-12.));
#782=CARTESIAN_POINT('',(-0.749785943310764,-33.2208464325888,-12.));
#783=CARTESIAN_POINT('',(-8.43066372918132,-3.64433123452144,-12.));
#784=CARTESIAN_POINT('Origin',(-11.2459275918949,7.19631702774998,-12.));
#785=CARTESIAN_POINT('',(-11.2459275918949,7.19631702774999,-12.));
#786=CARTESIAN_POINT('',(-8.43066372918132,-3.64433123452144,-12.));
#787=CARTESIAN_POINT('',(-11.2459275918949,7.19631702774999,-11.));
#788=CARTESIAN_POINT('',(-11.2459275918949,7.19631702774999,-12.));
#789=CARTESIAN_POINT('',(-8.43066372918132,-3.64433123452144,-11.));
#790=CARTESIAN_POINT('Origin',(12.,10.1,-12.));
#791=CARTESIAN_POINT('',(8.93030747006848,10.1564216835294,-11.));
#792=CARTESIAN_POINT('Origin',(12.,10.1,-11.));
#793=CARTESIAN_POINT('',(8.93030747006848,10.1564216835294,-12.));
#794=CARTESIAN_POINT('',(8.93030747006848,10.1564216835294,-12.));
#795=CARTESIAN_POINT('Origin',(12.,10.1,-12.));
#796=CARTESIAN_POINT('Origin',(0.00428646479439385,-36.1245294048387,-12.));
#797=CARTESIAN_POINT('Origin',(0.00428646479439385,-36.1245294048387,-11.));
#798=CARTESIAN_POINT('Origin',(0.00428646479439385,-36.1245294048387,-12.));
#799=CARTESIAN_POINT('Origin',(-12.,10.1,-12.));
#800=CARTESIAN_POINT('',(-9.00001090008182,10.1080870496446,-11.));
#801=CARTESIAN_POINT('Origin',(-12.,10.1,-11.));
#802=CARTESIAN_POINT('',(-9.00001090008182,10.1080870496446,-12.));
#803=CARTESIAN_POINT('Origin',(-12.,10.1,-12.));
#804=CARTESIAN_POINT('',(-9.00001090008182,10.1080870496446,-12.));
#805=CARTESIAN_POINT('Origin',(8.93030747006848,10.1564216835294,-12.));
#806=CARTESIAN_POINT('',(4.53205468468281,10.1445653442427,-11.));
#807=CARTESIAN_POINT('',(4.53205468468281,10.1445653442427,-12.));
#808=CARTESIAN_POINT('Origin',(0.00428646479439385,-36.1245294048387,-11.));
#809=CARTESIAN_POINT('',(1.7687864647944,-36.1245294048387,-12.));
#810=CARTESIAN_POINT('Origin',(0.00428646479439385,-36.1245294048387,-12.));
#811=CARTESIAN_POINT('',(1.7687864647944,-36.1245294048387,-11.));
#812=CARTESIAN_POINT('',(1.7687864647944,-36.1245294048387,-11.));
#813=CARTESIAN_POINT('Origin',(0.00428646479439385,-36.1245294048387,-11.));
#814=CARTESIAN_POINT('Origin',(12.,10.1,-11.));
#815=CARTESIAN_POINT('',(13.7645,10.1,-12.));
#816=CARTESIAN_POINT('Origin',(12.,10.1,-12.));
#817=CARTESIAN_POINT('',(13.7645,10.1,-11.));
#818=CARTESIAN_POINT('',(13.7645,10.1,-11.));
#819=CARTESIAN_POINT('Origin',(12.,10.1,-11.));
#820=CARTESIAN_POINT('Origin',(-12.,10.1,-11.));
#821=CARTESIAN_POINT('',(-10.2355,10.1,-12.));
#822=CARTESIAN_POINT('Origin',(-12.,10.1,-12.));
#823=CARTESIAN_POINT('',(-10.2355,10.1,-11.));
#824=CARTESIAN_POINT('',(-10.2355,10.1,-11.));
#825=CARTESIAN_POINT('Origin',(-12.,10.1,-11.));
#826=CARTESIAN_POINT('Origin',(12.3921904880015,10.1730046924904,-11.));
#827=CARTESIAN_POINT('',(12.175671640729,13.1651810891582,-11.));
#828=CARTESIAN_POINT('',(15.2902413770911,9.39756865753787,-11.));
#829=CARTESIAN_POINT('Origin',(12.3921904880015,10.1730046924904,-11.));
#830=CARTESIAN_POINT('',(15.2902413770911,9.39756865753787,-12.));
#831=CARTESIAN_POINT('',(15.2902413770911,9.39756865753787,-11.));
#832=CARTESIAN_POINT('',(12.175671640729,13.1651810891582,-12.));
#833=CARTESIAN_POINT('Origin',(12.3921904880015,10.1730046924904,-12.));
#834=CARTESIAN_POINT('',(12.175671640729,13.1651810891582,-11.));
#835=CARTESIAN_POINT('Origin',(-12.0080870496445,13.0999890999183,-11.));
#836=CARTESIAN_POINT('',(-12.0080870496445,13.0999890999183,-11.));
#837=CARTESIAN_POINT('',(12.5925743280889,13.1663049308181,-11.));
#838=CARTESIAN_POINT('',(-12.0080870496445,13.0999890999183,-12.));
#839=CARTESIAN_POINT('',(12.5925743280889,13.1663049308181,-12.));
#840=CARTESIAN_POINT('',(-12.0080870496445,13.0999890999183,-11.));
#841=CARTESIAN_POINT('Origin',(-12.,10.1,-11.));
#842=CARTESIAN_POINT('',(-14.9036829722493,9.34592759189613,-11.));
#843=CARTESIAN_POINT('Origin',(-12.,10.1,-11.));
#844=CARTESIAN_POINT('',(-14.9036829722493,9.34592759189613,-12.));
#845=CARTESIAN_POINT('Origin',(-12.,10.1,-12.));
#846=CARTESIAN_POINT('',(-14.9036829722493,9.34592759189613,-11.));
#847=CARTESIAN_POINT('Origin',(-2.89939650746312,-36.8786018129448,-11.));
#848=CARTESIAN_POINT('',(-2.89939650746312,-36.8786018129448,-11.));
#849=CARTESIAN_POINT('',(-2.89939650746312,-36.8786018129448,-11.));
#850=CARTESIAN_POINT('',(-2.89939650746312,-36.8786018129448,-12.));
#851=CARTESIAN_POINT('',(-2.89939650746312,-36.8786018129448,-12.));
#852=CARTESIAN_POINT('',(-2.89939650746312,-36.8786018129448,-11.));
#853=CARTESIAN_POINT('Origin',(0.00428646479439385,-36.1245294048387,-11.));
#854=CARTESIAN_POINT('',(2.90233735387302,-36.8999654397877,-11.));
#855=CARTESIAN_POINT('Origin',(0.00428646479439385,-36.1245294048387,-11.));
#856=CARTESIAN_POINT('',(2.90233735387302,-36.8999654397877,-12.));
#857=CARTESIAN_POINT('Origin',(0.00428646479439385,-36.1245294048387,-12.));
#858=CARTESIAN_POINT('',(2.90233735387302,-36.8999654397877,-11.));
#859=CARTESIAN_POINT('Origin',(15.2902413770911,9.39756865753787,-11.));
#860=CARTESIAN_POINT('',(15.2902413770911,9.39756865753787,-11.));
#861=CARTESIAN_POINT('',(15.2902413770911,9.39756865753787,-12.));
#862=CARTESIAN_POINT('Origin',(0.196095244000738,-12.9757623561742,-12.));
#863=CARTESIAN_POINT('Origin',(0.196095244000738,-12.9757623561742,-11.));
#864=CARTESIAN_POINT('',(0.,0.,0.));
#865=UNCERTAINTY_MEASURE_WITH_UNIT(LENGTH_MEASURE(0.01),#871,
'DISTANCE_ACCURACY_VALUE',
'Maximum model space distance between geometric entities at asserted c
onnectivities');
#866=UNCERTAINTY_MEASURE_WITH_UNIT(LENGTH_MEASURE(0.01),#871,
'DISTANCE_ACCURACY_VALUE',
'Maximum model space distance between geometric entities at asserted c
onnectivities');
#867=UNCERTAINTY_MEASURE_WITH_UNIT(LENGTH_MEASURE(0.01),#871,
'DISTANCE_ACCURACY_VALUE',
'Maximum model space distance between geometric entities at asserted c
onnectivities');
#868=(
GEOMETRIC_REPRESENTATION_CONTEXT(3)
GLOBAL_UNCERTAINTY_ASSIGNED_CONTEXT((#865))
GLOBAL_UNIT_ASSIGNED_CONTEXT((#871,#873,#874))
REPRESENTATION_CONTEXT('','3D')
);
#869=(
GEOMETRIC_REPRESENTATION_CONTEXT(3)
GLOBAL_UNCERTAINTY_ASSIGNED_CONTEXT((#866))
GLOBAL_UNIT_ASSIGNED_CONTEXT((#871,#873,#874))
REPRESENTATION_CONTEXT('','3D')
);
#870=(
GEOMETRIC_REPRESENTATION_CONTEXT(3)
GLOBAL_UNCERTAINTY_ASSIGNED_CONTEXT((#867))
GLOBAL_UNIT_ASSIGNED_CONTEXT((#871,#873,#874))
REPRESENTATION_CONTEXT('','3D')
);
#871=(
LENGTH_UNIT()
NAMED_UNIT(*)
SI_UNIT(.MILLI.,.METRE.)
);
#872=(
LENGTH_UNIT()
NAMED_UNIT(*)
SI_UNIT($,.METRE.)
);
#873=(
NAMED_UNIT(*)
PLANE_ANGLE_UNIT()
SI_UNIT($,.RADIAN.)
);
#874=(
NAMED_UNIT(*)
SI_UNIT($,.STERADIAN.)
SOLID_ANGLE_UNIT()
);
#875=SHAPE_DEFINITION_REPRESENTATION(#877,#880);
#876=SHAPE_DEFINITION_REPRESENTATION(#878,#881);
#877=PRODUCT_DEFINITION_SHAPE('',$,#883);
#878=PRODUCT_DEFINITION_SHAPE('',$,#884);
#879=PRODUCT_DEFINITION_SHAPE($,$,#14);
#880=SHAPE_REPRESENTATION('',(#517,#570),#868);
#881=SHAPE_REPRESENTATION('',(#518),#869);
#882=PRODUCT_DEFINITION_CONTEXT('part definition',#890,'design');
#883=PRODUCT_DEFINITION('R4-MC Gen3','R4-MC Gen3 v5',#885,#882);
#884=PRODUCT_DEFINITION('Rigifier','Rigifier',#886,#882);
#885=PRODUCT_DEFINITION_FORMATION('',$,#892);
#886=PRODUCT_DEFINITION_FORMATION('',$,#893);
#887=PRODUCT_RELATED_PRODUCT_CATEGORY('R4-MC Gen3 v5','R4-MC Gen3 v5',(#892));
#888=PRODUCT_RELATED_PRODUCT_CATEGORY('Rigifier','Rigifier',(#893));
#889=APPLICATION_PROTOCOL_DEFINITION('international standard',
'automotive_design',2009,#890);
#890=APPLICATION_CONTEXT(
'Core Data for Automotive Mechanical Design Process');
#891=PRODUCT_CONTEXT('part definition',#890,'mechanical');
#892=PRODUCT('R4-MC Gen3','R4-MC Gen3 v5',$,(#891));
#893=PRODUCT('Rigifier','Rigifier',$,(#891));
#894=PRESENTATION_STYLE_ASSIGNMENT((#902));
#895=PRESENTATION_STYLE_ASSIGNMENT((#903));
#896=PRESENTATION_STYLE_ASSIGNMENT((#904));
#897=PRESENTATION_STYLE_ASSIGNMENT((#905));
#898=PRESENTATION_STYLE_ASSIGNMENT((#906));
#899=PRESENTATION_STYLE_ASSIGNMENT((#907));
#900=PRESENTATION_STYLE_ASSIGNMENT((#908));
#901=PRESENTATION_STYLE_ASSIGNMENT((#909));
#902=SURFACE_STYLE_USAGE(.BOTH.,#910);
#903=SURFACE_STYLE_USAGE(.BOTH.,#911);
#904=SURFACE_STYLE_USAGE(.BOTH.,#912);
#905=SURFACE_STYLE_USAGE(.BOTH.,#913);
#906=SURFACE_STYLE_USAGE(.BOTH.,#914);
#907=SURFACE_STYLE_USAGE(.BOTH.,#915);
#908=SURFACE_STYLE_USAGE(.BOTH.,#916);
#909=SURFACE_STYLE_USAGE(.BOTH.,#917);
#910=SURFACE_SIDE_STYLE('',(#918));
#911=SURFACE_SIDE_STYLE('',(#919));
#912=SURFACE_SIDE_STYLE('',(#920));
#913=SURFACE_SIDE_STYLE('',(#921));
#914=SURFACE_SIDE_STYLE('',(#922));
#915=SURFACE_SIDE_STYLE('',(#923));
#916=SURFACE_SIDE_STYLE('',(#924));
#917=SURFACE_SIDE_STYLE('',(#925));
#918=SURFACE_STYLE_FILL_AREA(#926);
#919=SURFACE_STYLE_FILL_AREA(#927);
#920=SURFACE_STYLE_FILL_AREA(#928);
#921=SURFACE_STYLE_FILL_AREA(#929);
#922=SURFACE_STYLE_FILL_AREA(#930);
#923=SURFACE_STYLE_FILL_AREA(#931);
#924=SURFACE_STYLE_FILL_AREA(#932);
#925=SURFACE_STYLE_FILL_AREA(#933);
#926=FILL_AREA_STYLE('Stahl - satiniert',(#934));
#927=FILL_AREA_STYLE('Farbe - Emaille gl\X\E4nzend (Grau)',(#935));
#928=FILL_AREA_STYLE('Aluminium - satiniert',(#936));
#929=FILL_AREA_STYLE('Messing - poliert',(#937));
#930=FILL_AREA_STYLE('Kupfer - Roh',(#938));
#931=FILL_AREA_STYLE('Pulverbeschichtung - rau (Schwarz)',(#939));
#932=FILL_AREA_STYLE('Farbe - Emaille gl\X\E4nzend (Schwarz)',(#940));
#933=FILL_AREA_STYLE('Edelstahl - satiniert',(#941));
#934=FILL_AREA_STYLE_COLOUR('Stahl - satiniert',#942);
#935=FILL_AREA_STYLE_COLOUR('Farbe - Emaille gl\X\E4nzend (Grau)',#943);
#936=FILL_AREA_STYLE_COLOUR('Aluminium - satiniert',#944);
#937=FILL_AREA_STYLE_COLOUR('Messing - poliert',#945);
#938=FILL_AREA_STYLE_COLOUR('Kupfer - Roh',#946);
#939=FILL_AREA_STYLE_COLOUR('Pulverbeschichtung - rau (Schwarz)',#947);
#940=FILL_AREA_STYLE_COLOUR('Farbe - Emaille gl\X\E4nzend (Schwarz)',#948);
#941=FILL_AREA_STYLE_COLOUR('Edelstahl - satiniert',#949);
#942=COLOUR_RGB('Stahl - satiniert',0.627450980392157,0.627450980392157,
0.627450980392157);
#943=COLOUR_RGB('Farbe - Emaille gl\X\E4nzend (Grau)',0.701960784313725,
0.701960784313725,0.701960784313725);
#944=COLOUR_RGB('Aluminium - satiniert',0.96078431372549,0.96078431372549,
0.964705882352941);
#945=COLOUR_RGB('Messing - poliert',0.952941176470588,0.796078431372549,
0.486274509803922);
#946=COLOUR_RGB('Kupfer - Roh',0.,0.,0.);
#947=COLOUR_RGB('Pulverbeschichtung - rau (Schwarz)',0.0980392156862745,
0.0980392156862745,0.0980392156862745);
#948=COLOUR_RGB('Farbe - Emaille gl\X\E4nzend (Schwarz)',0.0980392156862745,
0.0980392156862745,0.0980392156862745);
#949=COLOUR_RGB('Edelstahl - satiniert',0.796078431372549,0.796078431372549,
0.796078431372549);
ENDSEC;
END-ISO-10303-21;
