ISO-10303-21;
HEADER;
/* Generated by software containing ST-Developer
 * from STEP Tools, Inc. (www.steptools.com) 
 */

FILE_DESCRIPTION(
/* description */ (''),
/* implementation_level */ '2;1');

FILE_NAME(
/* name */ 'Makita to CPAP_Adapter.step',
/* time_stamp */ '2025-12-16T22:22:41+01:00',
/* author */ (''),
/* organization */ (''),
/* preprocessor_version */ 'ST-DEVELOPER v20.1',
/* originating_system */ 'Autodesk Translation Framework v14.21.0.0',
/* authorisation */ '');

FILE_SCHEMA (('AUTOMOTIVE_DESIGN { 1 0 10303 214 3 1 1 }'));
ENDSEC;

DATA;
#10=MECHANICAL_DESIGN_GEOMETRIC_PRESENTATION_REPRESENTATION('',(#23,#24,
#25),#734);
#11=SHAPE_REPRESENTATION_RELATIONSHIP('SRR','None',#741,#12);
#12=ADVANCED_BREP_SHAPE_REPRESENTATION('',(#26,#27,#28),#733);
#13=(
BOUNDED_SURFACE()
B_SPLINE_SURFACE(2,2,((#637,#638,#639,#640,#641,#642,#643,#644,#645),(#646,
#647,#648,#649,#650,#651,#652,#653,#654),(#655,#656,#657,#658,#659,#660,
#661,#662,#663)),.UNSPECIFIED.,.F.,.T.,.F.)
B_SPLINE_SURFACE_WITH_KNOTS((3,3),(3,2,2,2,3),(-0.321750554396101,6.04650676077715E-13),
(-3.14159265358979,-1.5707963267949,0.,1.5707963267949,3.14159265358979),
 .UNSPECIFIED.)
GEOMETRIC_REPRESENTATION_ITEM()
RATIONAL_B_SPLINE_SURFACE(((1.,0.707106781186548,1.,0.707106781186548,1.,
0.707106781186548,1.,0.707106781186548,1.),(0.987087457637484,0.697976234919654,
0.987087457637484,0.697976234919654,0.987087457637484,0.697976234919654,
0.987087457637484,0.697976234919654,0.987087457637484),(1.,0.707106781186548,
1.,0.707106781186548,1.,0.707106781186548,1.,0.707106781186548,1.)))
REPRESENTATION_ITEM('')
SURFACE()
);
#14=(
BOUNDED_SURFACE()
B_SPLINE_SURFACE(2,2,((#677,#678,#679,#680,#681,#682,#683,#684,#685),(#686,
#687,#688,#689,#690,#691,#692,#693,#694),(#695,#696,#697,#698,#699,#700,
#701,#702,#703)),.UNSPECIFIED.,.F.,.T.,.F.)
B_SPLINE_SURFACE_WITH_KNOTS((3,3),(3,2,2,2,3),(-0.321750554396207,4.50068497395733E-13),
(-3.14159265358979,-1.5707963267949,0.,1.5707963267949,3.14159265358979),
 .UNSPECIFIED.)
GEOMETRIC_REPRESENTATION_ITEM()
RATIONAL_B_SPLINE_SURFACE(((1.,0.707106781186548,1.,0.707106781186548,1.,
0.707106781186548,1.,0.707106781186548,1.),(0.987087457637478,0.69797623491965,
0.987087457637478,0.69797623491965,0.987087457637478,0.69797623491965,0.987087457637478,
0.69797623491965,0.987087457637478),(1.,0.707106781186548,1.,0.707106781186548,
1.,0.707106781186548,1.,0.707106781186548,1.)))
REPRESENTATION_ITEM('')
SURFACE()
);
#15=TOROIDAL_SURFACE('',#408,25.9999999999995,14.9999999999995);
#16=TOROIDAL_SURFACE('',#430,24.5000000000005,15.0000000000005);
#17=CONICAL_SURFACE('',#396,10.,0.78539816339745);
#18=CONICAL_SURFACE('',#412,17.5387381196056,0.321750554396519);
#19=CONICAL_SURFACE('',#427,15.8358558322061,0.321750554396144);
#20=FACE_BOUND('',#63,.T.);
#21=FACE_BOUND('',#66,.T.);
#22=FACE_BOUND('',#74,.T.);
#23=STYLED_ITEM('',(#750),#26);
#24=STYLED_ITEM('',(#750),#27);
#25=STYLED_ITEM('',(#750),#28);
#26=MANIFOLD_SOLID_BREP('K\X\F6rper2',#368);
#27=MANIFOLD_SOLID_BREP('K\X\F6rper2',#369);
#28=MANIFOLD_SOLID_BREP('K\X\F6rper2',#370);
#29=CYLINDRICAL_SURFACE('',#386,2.5);
#30=CYLINDRICAL_SURFACE('',#392,24.9999999999991);
#31=CYLINDRICAL_SURFACE('',#402,9.5);
#32=CYLINDRICAL_SURFACE('',#405,11.);
#33=CYLINDRICAL_SURFACE('',#417,24.9999999999991);
#34=CYLINDRICAL_SURFACE('',#421,23.0000000000002);
#35=CYLINDRICAL_SURFACE('',#437,2.5);
#36=FACE_OUTER_BOUND('',#58,.T.);
#37=FACE_OUTER_BOUND('',#59,.T.);
#38=FACE_OUTER_BOUND('',#60,.T.);
#39=FACE_OUTER_BOUND('',#61,.T.);
#40=FACE_OUTER_BOUND('',#62,.T.);
#41=FACE_OUTER_BOUND('',#64,.T.);
#42=FACE_OUTER_BOUND('',#65,.T.);
#43=FACE_OUTER_BOUND('',#67,.T.);
#44=FACE_OUTER_BOUND('',#68,.T.);
#45=FACE_OUTER_BOUND('',#69,.T.);
#46=FACE_OUTER_BOUND('',#70,.T.);
#47=FACE_OUTER_BOUND('',#71,.T.);
#48=FACE_OUTER_BOUND('',#72,.T.);
#49=FACE_OUTER_BOUND('',#73,.T.);
#50=FACE_OUTER_BOUND('',#75,.T.);
#51=FACE_OUTER_BOUND('',#76,.T.);
#52=FACE_OUTER_BOUND('',#77,.T.);
#53=FACE_OUTER_BOUND('',#78,.T.);
#54=FACE_OUTER_BOUND('',#79,.T.);
#55=FACE_OUTER_BOUND('',#80,.T.);
#56=FACE_OUTER_BOUND('',#81,.T.);
#57=FACE_OUTER_BOUND('',#82,.T.);
#58=EDGE_LOOP('',(#236,#237));
#59=EDGE_LOOP('',(#238,#239,#240,#241,#242,#243));
#60=EDGE_LOOP('',(#244));
#61=EDGE_LOOP('',(#245,#246,#247));
#62=EDGE_LOOP('',(#248,#249,#250,#251,#252,#253,#254));
#63=EDGE_LOOP('',(#255,#256));
#64=EDGE_LOOP('',(#257,#258,#259,#260,#261));
#65=EDGE_LOOP('',(#262));
#66=EDGE_LOOP('',(#263));
#67=EDGE_LOOP('',(#264,#265,#266,#267,#268,#269));
#68=EDGE_LOOP('',(#270,#271,#272,#273,#274));
#69=EDGE_LOOP('',(#275,#276,#277,#278,#279,#280));
#70=EDGE_LOOP('',(#281,#282,#283,#284,#285,#286));
#71=EDGE_LOOP('',(#287,#288,#289,#290,#291,#292,#293));
#72=EDGE_LOOP('',(#294,#295,#296,#297,#298,#299));
#73=EDGE_LOOP('',(#300,#301));
#74=EDGE_LOOP('',(#302));
#75=EDGE_LOOP('',(#303,#304,#305,#306,#307));
#76=EDGE_LOOP('',(#308,#309,#310,#311,#312,#313));
#77=EDGE_LOOP('',(#314,#315,#316,#317,#318,#319));
#78=EDGE_LOOP('',(#320,#321,#322,#323,#324,#325));
#79=EDGE_LOOP('',(#326,#327,#328));
#80=EDGE_LOOP('',(#329));
#81=EDGE_LOOP('',(#330,#331,#332,#333,#334,#335));
#82=EDGE_LOOP('',(#336,#337));
#83=CIRCLE('',#385,2.5);
#84=CIRCLE('',#387,2.5);
#85=CIRCLE('',#388,2.5);
#86=CIRCLE('',#389,2.5);
#87=CIRCLE('',#393,24.9999999999983);
#88=CIRCLE('',#394,24.9999999999983);
#89=CIRCLE('',#395,25.);
#90=CIRCLE('',#397,10.5);
#91=CIRCLE('',#398,9.5);
#92=CIRCLE('',#399,9.5);
#93=CIRCLE('',#401,11.);
#94=CIRCLE('',#403,9.5);
#95=CIRCLE('',#404,9.5);
#96=CIRCLE('',#406,11.);
#97=CIRCLE('',#407,11.);
#98=CIRCLE('',#409,14.9999999999995);
#99=CIRCLE('',#410,11.7697505292417);
#100=CIRCLE('',#411,11.7697505292417);
#101=CIRCLE('',#413,23.3077257099723);
#102=CIRCLE('',#414,23.3077257099723);
#103=CIRCLE('',#415,24.9999999999983);
#104=CIRCLE('',#416,32.9770664470489);
#105=CIRCLE('',#418,25.);
#106=CIRCLE('',#420,23.);
#107=CIRCLE('',#422,23.0000000000003);
#108=CIRCLE('',#423,23.0000000000003);
#109=CIRCLE('',#424,31.1407164553101);
#110=CIRCLE('',#425,21.401961135174);
#111=CIRCLE('',#426,21.401961135174);
#112=CIRCLE('',#428,10.2697505292403);
#113=CIRCLE('',#429,10.2697505292403);
#114=CIRCLE('',#431,15.0000000000005);
#115=CIRCLE('',#433,2.5);
#116=CIRCLE('',#434,2.5);
#117=CIRCLE('',#436,2.5);
#118=CIRCLE('',#438,2.5);
#119=LINE('',#573,#134);
#120=LINE('',#579,#135);
#121=LINE('',#587,#136);
#122=LINE('',#589,#137);
#123=LINE('',#591,#138);
#124=LINE('',#597,#139);
#125=LINE('',#601,#140);
#126=LINE('',#606,#141);
#127=LINE('',#618,#142);
#128=LINE('',#623,#143);
#129=LINE('',#635,#144);
#130=LINE('',#673,#145);
#131=LINE('',#711,#146);
#132=LINE('',#720,#147);
#133=LINE('',#728,#148);
#134=VECTOR('',#444,10.);
#135=VECTOR('',#451,2.5);
#136=VECTOR('',#462,24.9999999999991);
#137=VECTOR('',#463,10.);
#138=VECTOR('',#464,24.9999999999991);
#139=VECTOR('',#469,24.9999999999991);
#140=VECTOR('',#472,10.);
#141=VECTOR('',#477,10.);
#142=VECTOR('',#492,9.5);
#143=VECTOR('',#497,11.);
#144=VECTOR('',#512,17.5387381196056);
#145=VECTOR('',#529,23.0000000000002);
#146=VECTOR('',#542,15.8358558322061);
#147=VECTOR('',#553,10.);
#148=VECTOR('',#564,2.5);
#149=VERTEX_POINT('',#571);
#150=VERTEX_POINT('',#572);
#151=VERTEX_POINT('',#576);
#152=VERTEX_POINT('',#578);
#153=VERTEX_POINT('',#585);
#154=VERTEX_POINT('',#586);
#155=VERTEX_POINT('',#588);
#156=VERTEX_POINT('',#590);
#157=VERTEX_POINT('',#592);
#158=VERTEX_POINT('',#594);
#159=VERTEX_POINT('',#596);
#160=VERTEX_POINT('',#599);
#161=VERTEX_POINT('',#600);
#162=VERTEX_POINT('',#603);
#163=VERTEX_POINT('',#605);
#164=VERTEX_POINT('',#607);
#165=VERTEX_POINT('',#611);
#166=VERTEX_POINT('',#614);
#167=VERTEX_POINT('',#615);
#168=VERTEX_POINT('',#620);
#169=VERTEX_POINT('',#621);
#170=VERTEX_POINT('',#626);
#171=VERTEX_POINT('',#628);
#172=VERTEX_POINT('',#632);
#173=VERTEX_POINT('',#633);
#174=VERTEX_POINT('',#669);
#175=VERTEX_POINT('',#672);
#176=VERTEX_POINT('',#674);
#177=VERTEX_POINT('',#704);
#178=VERTEX_POINT('',#706);
#179=VERTEX_POINT('',#710);
#180=VERTEX_POINT('',#712);
#181=VERTEX_POINT('',#718);
#182=VERTEX_POINT('',#719);
#183=VERTEX_POINT('',#721);
#184=VERTEX_POINT('',#725);
#185=EDGE_CURVE('',#149,#150,#119,.T.);
#186=EDGE_CURVE('',#150,#149,#83,.T.);
#187=EDGE_CURVE('',#151,#151,#84,.T.);
#188=EDGE_CURVE('',#151,#152,#120,.T.);
#189=EDGE_CURVE('',#152,#150,#85,.T.);
#190=EDGE_CURVE('',#149,#152,#86,.T.);
#191=EDGE_CURVE('',#153,#154,#121,.T.);
#192=EDGE_CURVE('',#155,#153,#122,.T.);
#193=EDGE_CURVE('',#156,#155,#123,.T.);
#194=EDGE_CURVE('',#156,#157,#87,.T.);
#195=EDGE_CURVE('',#157,#158,#88,.T.);
#196=EDGE_CURVE('',#159,#158,#124,.T.);
#197=EDGE_CURVE('',#154,#159,#89,.T.);
#198=EDGE_CURVE('',#160,#161,#125,.T.);
#199=EDGE_CURVE('',#162,#162,#90,.T.);
#200=EDGE_CURVE('',#162,#163,#126,.T.);
#201=EDGE_CURVE('',#163,#164,#91,.T.);
#202=EDGE_CURVE('',#164,#163,#92,.T.);
#203=EDGE_CURVE('',#165,#165,#93,.T.);
#204=EDGE_CURVE('',#166,#167,#94,.T.);
#205=EDGE_CURVE('',#167,#166,#95,.T.);
#206=EDGE_CURVE('',#166,#164,#127,.T.);
#207=EDGE_CURVE('',#168,#169,#96,.T.);
#208=EDGE_CURVE('',#168,#165,#128,.T.);
#209=EDGE_CURVE('',#169,#168,#97,.T.);
#210=EDGE_CURVE('',#169,#170,#98,.T.);
#211=EDGE_CURVE('',#171,#170,#99,.T.);
#212=EDGE_CURVE('',#170,#171,#100,.T.);
#213=EDGE_CURVE('',#172,#173,#101,.T.);
#214=EDGE_CURVE('',#172,#171,#129,.T.);
#215=EDGE_CURVE('',#173,#172,#102,.T.);
#216=EDGE_CURVE('',#158,#156,#103,.T.);
#217=EDGE_CURVE('',#157,#173,#104,.T.);
#218=EDGE_CURVE('',#159,#154,#105,.T.);
#219=EDGE_CURVE('',#174,#174,#106,.T.);
#220=EDGE_CURVE('',#174,#175,#130,.T.);
#221=EDGE_CURVE('',#176,#175,#107,.T.);
#222=EDGE_CURVE('',#175,#176,#108,.T.);
#223=EDGE_CURVE('',#176,#177,#109,.T.);
#224=EDGE_CURVE('',#178,#177,#110,.T.);
#225=EDGE_CURVE('',#177,#178,#111,.T.);
#226=EDGE_CURVE('',#178,#179,#131,.T.);
#227=EDGE_CURVE('',#180,#179,#112,.T.);
#228=EDGE_CURVE('',#179,#180,#113,.T.);
#229=EDGE_CURVE('',#167,#180,#114,.T.);
#230=EDGE_CURVE('',#181,#182,#132,.T.);
#231=EDGE_CURVE('',#183,#182,#115,.T.);
#232=EDGE_CURVE('',#181,#183,#116,.T.);
#233=EDGE_CURVE('',#184,#184,#117,.T.);
#234=EDGE_CURVE('',#184,#183,#133,.T.);
#235=EDGE_CURVE('',#182,#181,#118,.T.);
#236=ORIENTED_EDGE('',*,*,#185,.F.);
#237=ORIENTED_EDGE('',*,*,#186,.F.);
#238=ORIENTED_EDGE('',*,*,#187,.F.);
#239=ORIENTED_EDGE('',*,*,#188,.T.);
#240=ORIENTED_EDGE('',*,*,#189,.T.);
#241=ORIENTED_EDGE('',*,*,#186,.T.);
#242=ORIENTED_EDGE('',*,*,#190,.T.);
#243=ORIENTED_EDGE('',*,*,#188,.F.);
#244=ORIENTED_EDGE('',*,*,#187,.T.);
#245=ORIENTED_EDGE('',*,*,#185,.T.);
#246=ORIENTED_EDGE('',*,*,#189,.F.);
#247=ORIENTED_EDGE('',*,*,#190,.F.);
#248=ORIENTED_EDGE('',*,*,#191,.F.);
#249=ORIENTED_EDGE('',*,*,#192,.F.);
#250=ORIENTED_EDGE('',*,*,#193,.F.);
#251=ORIENTED_EDGE('',*,*,#194,.T.);
#252=ORIENTED_EDGE('',*,*,#195,.T.);
#253=ORIENTED_EDGE('',*,*,#196,.F.);
#254=ORIENTED_EDGE('',*,*,#197,.F.);
#255=ORIENTED_EDGE('',*,*,#198,.T.);
#256=ORIENTED_EDGE('',*,*,#198,.F.);
#257=ORIENTED_EDGE('',*,*,#199,.T.);
#258=ORIENTED_EDGE('',*,*,#200,.T.);
#259=ORIENTED_EDGE('',*,*,#201,.T.);
#260=ORIENTED_EDGE('',*,*,#202,.T.);
#261=ORIENTED_EDGE('',*,*,#200,.F.);
#262=ORIENTED_EDGE('',*,*,#203,.F.);
#263=ORIENTED_EDGE('',*,*,#199,.F.);
#264=ORIENTED_EDGE('',*,*,#204,.T.);
#265=ORIENTED_EDGE('',*,*,#205,.T.);
#266=ORIENTED_EDGE('',*,*,#206,.T.);
#267=ORIENTED_EDGE('',*,*,#201,.F.);
#268=ORIENTED_EDGE('',*,*,#202,.F.);
#269=ORIENTED_EDGE('',*,*,#206,.F.);
#270=ORIENTED_EDGE('',*,*,#207,.F.);
#271=ORIENTED_EDGE('',*,*,#208,.T.);
#272=ORIENTED_EDGE('',*,*,#203,.T.);
#273=ORIENTED_EDGE('',*,*,#208,.F.);
#274=ORIENTED_EDGE('',*,*,#209,.F.);
#275=ORIENTED_EDGE('',*,*,#207,.T.);
#276=ORIENTED_EDGE('',*,*,#210,.T.);
#277=ORIENTED_EDGE('',*,*,#211,.F.);
#278=ORIENTED_EDGE('',*,*,#212,.F.);
#279=ORIENTED_EDGE('',*,*,#210,.F.);
#280=ORIENTED_EDGE('',*,*,#209,.T.);
#281=ORIENTED_EDGE('',*,*,#213,.F.);
#282=ORIENTED_EDGE('',*,*,#214,.T.);
#283=ORIENTED_EDGE('',*,*,#211,.T.);
#284=ORIENTED_EDGE('',*,*,#212,.T.);
#285=ORIENTED_EDGE('',*,*,#214,.F.);
#286=ORIENTED_EDGE('',*,*,#215,.F.);
#287=ORIENTED_EDGE('',*,*,#216,.F.);
#288=ORIENTED_EDGE('',*,*,#195,.F.);
#289=ORIENTED_EDGE('',*,*,#217,.T.);
#290=ORIENTED_EDGE('',*,*,#215,.T.);
#291=ORIENTED_EDGE('',*,*,#213,.T.);
#292=ORIENTED_EDGE('',*,*,#217,.F.);
#293=ORIENTED_EDGE('',*,*,#194,.F.);
#294=ORIENTED_EDGE('',*,*,#191,.T.);
#295=ORIENTED_EDGE('',*,*,#218,.F.);
#296=ORIENTED_EDGE('',*,*,#196,.T.);
#297=ORIENTED_EDGE('',*,*,#216,.T.);
#298=ORIENTED_EDGE('',*,*,#193,.T.);
#299=ORIENTED_EDGE('',*,*,#192,.T.);
#300=ORIENTED_EDGE('',*,*,#218,.T.);
#301=ORIENTED_EDGE('',*,*,#197,.T.);
#302=ORIENTED_EDGE('',*,*,#219,.F.);
#303=ORIENTED_EDGE('',*,*,#219,.T.);
#304=ORIENTED_EDGE('',*,*,#220,.T.);
#305=ORIENTED_EDGE('',*,*,#221,.F.);
#306=ORIENTED_EDGE('',*,*,#222,.F.);
#307=ORIENTED_EDGE('',*,*,#220,.F.);
#308=ORIENTED_EDGE('',*,*,#222,.T.);
#309=ORIENTED_EDGE('',*,*,#223,.T.);
#310=ORIENTED_EDGE('',*,*,#224,.F.);
#311=ORIENTED_EDGE('',*,*,#225,.F.);
#312=ORIENTED_EDGE('',*,*,#223,.F.);
#313=ORIENTED_EDGE('',*,*,#221,.T.);
#314=ORIENTED_EDGE('',*,*,#224,.T.);
#315=ORIENTED_EDGE('',*,*,#225,.T.);
#316=ORIENTED_EDGE('',*,*,#226,.T.);
#317=ORIENTED_EDGE('',*,*,#227,.F.);
#318=ORIENTED_EDGE('',*,*,#228,.F.);
#319=ORIENTED_EDGE('',*,*,#226,.F.);
#320=ORIENTED_EDGE('',*,*,#204,.F.);
#321=ORIENTED_EDGE('',*,*,#205,.F.);
#322=ORIENTED_EDGE('',*,*,#229,.T.);
#323=ORIENTED_EDGE('',*,*,#227,.T.);
#324=ORIENTED_EDGE('',*,*,#228,.T.);
#325=ORIENTED_EDGE('',*,*,#229,.F.);
#326=ORIENTED_EDGE('',*,*,#230,.T.);
#327=ORIENTED_EDGE('',*,*,#231,.F.);
#328=ORIENTED_EDGE('',*,*,#232,.F.);
#329=ORIENTED_EDGE('',*,*,#233,.T.);
#330=ORIENTED_EDGE('',*,*,#233,.F.);
#331=ORIENTED_EDGE('',*,*,#234,.T.);
#332=ORIENTED_EDGE('',*,*,#231,.T.);
#333=ORIENTED_EDGE('',*,*,#235,.T.);
#334=ORIENTED_EDGE('',*,*,#232,.T.);
#335=ORIENTED_EDGE('',*,*,#234,.F.);
#336=ORIENTED_EDGE('',*,*,#230,.F.);
#337=ORIENTED_EDGE('',*,*,#235,.F.);
#338=PLANE('',#384);
#339=PLANE('',#390);
#340=PLANE('',#391);
#341=PLANE('',#400);
#342=PLANE('',#419);
#343=PLANE('',#432);
#344=PLANE('',#435);
#345=PLANE('',#439);
#346=ADVANCED_FACE('',(#36),#338,.F.);
#347=ADVANCED_FACE('',(#37),#29,.T.);
#348=ADVANCED_FACE('',(#38),#339,.T.);
#349=ADVANCED_FACE('',(#39),#340,.F.);
#350=ADVANCED_FACE('',(#40,#20),#30,.T.);
#351=ADVANCED_FACE('',(#41),#17,.F.);
#352=ADVANCED_FACE('',(#42,#21),#341,.T.);
#353=ADVANCED_FACE('',(#43),#31,.F.);
#354=ADVANCED_FACE('',(#44),#32,.T.);
#355=ADVANCED_FACE('',(#45),#15,.F.);
#356=ADVANCED_FACE('',(#46),#18,.T.);
#357=ADVANCED_FACE('',(#47),#13,.F.);
#358=ADVANCED_FACE('',(#48),#33,.T.);
#359=ADVANCED_FACE('',(#49,#22),#342,.T.);
#360=ADVANCED_FACE('',(#50),#34,.F.);
#361=ADVANCED_FACE('',(#51),#14,.T.);
#362=ADVANCED_FACE('',(#52),#19,.F.);
#363=ADVANCED_FACE('',(#53),#16,.T.);
#364=ADVANCED_FACE('',(#54),#343,.F.);
#365=ADVANCED_FACE('',(#55),#344,.T.);
#366=ADVANCED_FACE('',(#56),#35,.T.);
#367=ADVANCED_FACE('',(#57),#345,.F.);
#368=CLOSED_SHELL('',(#346,#347,#348,#349));
#369=CLOSED_SHELL('',(#350,#351,#352,#353,#354,#355,#356,#357,#358,#359,
#360,#361,#362,#363));
#370=CLOSED_SHELL('',(#364,#365,#366,#367));
#371=DERIVED_UNIT_ELEMENT(#373,1.);
#372=DERIVED_UNIT_ELEMENT(#736,-3.);
#373=(
MASS_UNIT()
NAMED_UNIT(*)
SI_UNIT(.KILO.,.GRAM.)
);
#374=DERIVED_UNIT((#371,#372));
#375=MEASURE_REPRESENTATION_ITEM('density measure',
POSITIVE_RATIO_MEASURE(7850.),#374);
#376=PROPERTY_DEFINITION_REPRESENTATION(#381,#378);
#377=PROPERTY_DEFINITION_REPRESENTATION(#382,#379);
#378=REPRESENTATION('material name',(#380),#733);
#379=REPRESENTATION('density',(#375),#733);
#380=DESCRIPTIVE_REPRESENTATION_ITEM('Stahl','Stahl');
#381=PROPERTY_DEFINITION('material property','material name',#743);
#382=PROPERTY_DEFINITION('material property','density of part',#743);
#383=AXIS2_PLACEMENT_3D('',#569,#440,#441);
#384=AXIS2_PLACEMENT_3D('',#570,#442,#443);
#385=AXIS2_PLACEMENT_3D('',#574,#445,#446);
#386=AXIS2_PLACEMENT_3D('',#575,#447,#448);
#387=AXIS2_PLACEMENT_3D('',#577,#449,#450);
#388=AXIS2_PLACEMENT_3D('',#580,#452,#453);
#389=AXIS2_PLACEMENT_3D('',#581,#454,#455);
#390=AXIS2_PLACEMENT_3D('',#582,#456,#457);
#391=AXIS2_PLACEMENT_3D('',#583,#458,#459);
#392=AXIS2_PLACEMENT_3D('',#584,#460,#461);
#393=AXIS2_PLACEMENT_3D('',#593,#465,#466);
#394=AXIS2_PLACEMENT_3D('',#595,#467,#468);
#395=AXIS2_PLACEMENT_3D('',#598,#470,#471);
#396=AXIS2_PLACEMENT_3D('',#602,#473,#474);
#397=AXIS2_PLACEMENT_3D('',#604,#475,#476);
#398=AXIS2_PLACEMENT_3D('',#608,#478,#479);
#399=AXIS2_PLACEMENT_3D('',#609,#480,#481);
#400=AXIS2_PLACEMENT_3D('',#610,#482,#483);
#401=AXIS2_PLACEMENT_3D('',#612,#484,#485);
#402=AXIS2_PLACEMENT_3D('',#613,#486,#487);
#403=AXIS2_PLACEMENT_3D('',#616,#488,#489);
#404=AXIS2_PLACEMENT_3D('',#617,#490,#491);
#405=AXIS2_PLACEMENT_3D('',#619,#493,#494);
#406=AXIS2_PLACEMENT_3D('',#622,#495,#496);
#407=AXIS2_PLACEMENT_3D('',#624,#498,#499);
#408=AXIS2_PLACEMENT_3D('',#625,#500,#501);
#409=AXIS2_PLACEMENT_3D('',#627,#502,#503);
#410=AXIS2_PLACEMENT_3D('',#629,#504,#505);
#411=AXIS2_PLACEMENT_3D('',#630,#506,#507);
#412=AXIS2_PLACEMENT_3D('',#631,#508,#509);
#413=AXIS2_PLACEMENT_3D('',#634,#510,#511);
#414=AXIS2_PLACEMENT_3D('',#636,#513,#514);
#415=AXIS2_PLACEMENT_3D('',#664,#515,#516);
#416=AXIS2_PLACEMENT_3D('',#665,#517,#518);
#417=AXIS2_PLACEMENT_3D('',#666,#519,#520);
#418=AXIS2_PLACEMENT_3D('',#667,#521,#522);
#419=AXIS2_PLACEMENT_3D('',#668,#523,#524);
#420=AXIS2_PLACEMENT_3D('',#670,#525,#526);
#421=AXIS2_PLACEMENT_3D('',#671,#527,#528);
#422=AXIS2_PLACEMENT_3D('',#675,#530,#531);
#423=AXIS2_PLACEMENT_3D('',#676,#532,#533);
#424=AXIS2_PLACEMENT_3D('',#705,#534,#535);
#425=AXIS2_PLACEMENT_3D('',#707,#536,#537);
#426=AXIS2_PLACEMENT_3D('',#708,#538,#539);
#427=AXIS2_PLACEMENT_3D('',#709,#540,#541);
#428=AXIS2_PLACEMENT_3D('',#713,#543,#544);
#429=AXIS2_PLACEMENT_3D('',#714,#545,#546);
#430=AXIS2_PLACEMENT_3D('',#715,#547,#548);
#431=AXIS2_PLACEMENT_3D('',#716,#549,#550);
#432=AXIS2_PLACEMENT_3D('',#717,#551,#552);
#433=AXIS2_PLACEMENT_3D('',#722,#554,#555);
#434=AXIS2_PLACEMENT_3D('',#723,#556,#557);
#435=AXIS2_PLACEMENT_3D('',#724,#558,#559);
#436=AXIS2_PLACEMENT_3D('',#726,#560,#561);
#437=AXIS2_PLACEMENT_3D('',#727,#562,#563);
#438=AXIS2_PLACEMENT_3D('',#729,#565,#566);
#439=AXIS2_PLACEMENT_3D('',#730,#567,#568);
#440=DIRECTION('axis',(0.,0.,1.));
#441=DIRECTION('refdir',(1.,0.,0.));
#442=DIRECTION('center_axis',(-1.22464679914735E-16,0.,-1.));
#443=DIRECTION('ref_axis',(-1.,0.,1.22464679914735E-16));
#444=DIRECTION('',(0.,-1.,0.));
#445=DIRECTION('center_axis',(-1.22464679914735E-16,0.,-1.));
#446=DIRECTION('ref_axis',(-1.,0.,1.22464679914735E-16));
#447=DIRECTION('center_axis',(-1.22464679914735E-16,0.,-1.));
#448=DIRECTION('ref_axis',(-1.,0.,1.22464679914735E-16));
#449=DIRECTION('center_axis',(-1.22464679914735E-16,0.,-1.));
#450=DIRECTION('ref_axis',(-1.,0.,1.22464679914735E-16));
#451=DIRECTION('',(1.22464679914735E-16,0.,1.));
#452=DIRECTION('center_axis',(-1.22464679914735E-16,0.,-1.));
#453=DIRECTION('ref_axis',(-1.,0.,1.22464679914735E-16));
#454=DIRECTION('center_axis',(-1.22464679914735E-16,0.,-1.));
#455=DIRECTION('ref_axis',(-1.,0.,1.22464679914735E-16));
#456=DIRECTION('center_axis',(-1.22464679914735E-16,0.,-1.));
#457=DIRECTION('ref_axis',(-1.,0.,1.22464679914735E-16));
#458=DIRECTION('center_axis',(-1.22464679914735E-16,0.,-1.));
#459=DIRECTION('ref_axis',(-1.,0.,1.22464679914735E-16));
#460=DIRECTION('center_axis',(0.,-1.,0.));
#461=DIRECTION('ref_axis',(2.83276944882399E-16,0.,1.));
#462=DIRECTION('',(0.,-1.,0.));
#463=DIRECTION('',(0.,-1.,0.));
#464=DIRECTION('',(0.,-1.,0.));
#465=DIRECTION('center_axis',(0.,-1.,0.));
#466=DIRECTION('ref_axis',(1.,0.,0.));
#467=DIRECTION('center_axis',(0.,-1.,0.));
#468=DIRECTION('ref_axis',(1.,0.,0.));
#469=DIRECTION('',(0.,1.,0.));
#470=DIRECTION('center_axis',(0.,-1.,0.));
#471=DIRECTION('ref_axis',(1.,0.,0.));
#472=DIRECTION('',(0.,-1.,0.));
#473=DIRECTION('center_axis',(0.,1.,0.));
#474=DIRECTION('ref_axis',(-1.,0.,0.));
#475=DIRECTION('center_axis',(0.,1.,0.));
#476=DIRECTION('ref_axis',(-1.,0.,0.));
#477=DIRECTION('',(-0.707106781186549,-0.707106781186546,8.65956056235495E-17));
#478=DIRECTION('center_axis',(0.,-1.,0.));
#479=DIRECTION('ref_axis',(-1.,0.,0.));
#480=DIRECTION('center_axis',(0.,-1.,0.));
#481=DIRECTION('ref_axis',(-1.,0.,0.));
#482=DIRECTION('center_axis',(0.,1.,0.));
#483=DIRECTION('ref_axis',(0.,0.,1.));
#484=DIRECTION('center_axis',(0.,-1.,0.));
#485=DIRECTION('ref_axis',(1.,0.,0.));
#486=DIRECTION('center_axis',(0.,-1.,0.));
#487=DIRECTION('ref_axis',(1.,0.,0.));
#488=DIRECTION('center_axis',(0.,-1.,0.));
#489=DIRECTION('ref_axis',(1.,0.,0.));
#490=DIRECTION('center_axis',(0.,-1.,0.));
#491=DIRECTION('ref_axis',(1.,0.,0.));
#492=DIRECTION('',(0.,1.,0.));
#493=DIRECTION('center_axis',(0.,-1.,0.));
#494=DIRECTION('ref_axis',(1.,0.,0.));
#495=DIRECTION('center_axis',(0.,-1.,0.));
#496=DIRECTION('ref_axis',(1.,0.,0.));
#497=DIRECTION('',(0.,1.,0.));
#498=DIRECTION('center_axis',(0.,-1.,0.));
#499=DIRECTION('ref_axis',(1.,0.,0.));
#500=DIRECTION('center_axis',(0.,-1.,0.));
#501=DIRECTION('ref_axis',(0.,0.,-1.));
#502=DIRECTION('center_axis',(-1.,0.,-1.22464679914735E-16));
#503=DIRECTION('ref_axis',(-1.22464679914735E-16,0.,1.));
#504=DIRECTION('center_axis',(0.,-1.,0.));
#505=DIRECTION('ref_axis',(1.,0.,0.));
#506=DIRECTION('center_axis',(0.,-1.,0.));
#507=DIRECTION('ref_axis',(1.,0.,0.));
#508=DIRECTION('center_axis',(0.,-1.,0.));
#509=DIRECTION('ref_axis',(1.,0.,0.));
#510=DIRECTION('center_axis',(0.,-1.,0.));
#511=DIRECTION('ref_axis',(1.,0.,0.));
#512=DIRECTION('',(0.316227766016721,0.948683298050553,3.87267321453896E-17));
#513=DIRECTION('center_axis',(0.,-1.,0.));
#514=DIRECTION('ref_axis',(1.,0.,0.));
#515=DIRECTION('center_axis',(0.,-1.,0.));
#516=DIRECTION('ref_axis',(1.,0.,0.));
#517=DIRECTION('center_axis',(-1.,0.,-1.22464679914735E-16));
#518=DIRECTION('ref_axis',(-1.22464679914735E-16,0.,1.));
#519=DIRECTION('center_axis',(0.,-1.,0.));
#520=DIRECTION('ref_axis',(2.83276944882399E-16,0.,1.));
#521=DIRECTION('center_axis',(0.,-1.,0.));
#522=DIRECTION('ref_axis',(1.,0.,0.));
#523=DIRECTION('center_axis',(0.,-1.,0.));
#524=DIRECTION('ref_axis',(0.,0.,-1.));
#525=DIRECTION('center_axis',(0.,-1.,0.));
#526=DIRECTION('ref_axis',(1.,0.,0.));
#527=DIRECTION('center_axis',(0.,-1.,0.));
#528=DIRECTION('ref_axis',(1.,0.,0.));
#529=DIRECTION('',(0.,1.,0.));
#530=DIRECTION('center_axis',(0.,-1.,0.));
#531=DIRECTION('ref_axis',(1.,0.,0.));
#532=DIRECTION('center_axis',(0.,-1.,0.));
#533=DIRECTION('ref_axis',(1.,0.,0.));
#534=DIRECTION('center_axis',(-1.,0.,-1.22464679914735E-16));
#535=DIRECTION('ref_axis',(-1.22464679914735E-16,0.,1.));
#536=DIRECTION('center_axis',(0.,-1.,0.));
#537=DIRECTION('ref_axis',(1.,0.,0.));
#538=DIRECTION('center_axis',(0.,-1.,0.));
#539=DIRECTION('ref_axis',(1.,0.,0.));
#540=DIRECTION('center_axis',(0.,-1.,0.));
#541=DIRECTION('ref_axis',(1.,0.,0.));
#542=DIRECTION('',(0.316227766016366,0.948683298050671,3.8726732145346E-17));
#543=DIRECTION('center_axis',(0.,-1.,0.));
#544=DIRECTION('ref_axis',(1.,0.,0.));
#545=DIRECTION('center_axis',(0.,-1.,0.));
#546=DIRECTION('ref_axis',(1.,0.,0.));
#547=DIRECTION('center_axis',(0.,-1.,0.));
#548=DIRECTION('ref_axis',(0.,0.,-1.));
#549=DIRECTION('center_axis',(-1.,0.,-1.22464679914735E-16));
#550=DIRECTION('ref_axis',(-1.22464679914735E-16,0.,1.));
#551=DIRECTION('center_axis',(0.,0.,1.));
#552=DIRECTION('ref_axis',(1.,0.,0.));
#553=DIRECTION('',(0.,-1.,0.));
#554=DIRECTION('center_axis',(0.,0.,1.));
#555=DIRECTION('ref_axis',(1.,0.,0.));
#556=DIRECTION('center_axis',(0.,0.,1.));
#557=DIRECTION('ref_axis',(1.,0.,0.));
#558=DIRECTION('center_axis',(0.,0.,1.));
#559=DIRECTION('ref_axis',(1.,0.,0.));
#560=DIRECTION('center_axis',(0.,0.,1.));
#561=DIRECTION('ref_axis',(1.,0.,0.));
#562=DIRECTION('center_axis',(0.,0.,1.));
#563=DIRECTION('ref_axis',(1.,0.,0.));
#564=DIRECTION('',(0.,0.,-1.));
#565=DIRECTION('center_axis',(0.,0.,1.));
#566=DIRECTION('ref_axis',(1.,0.,0.));
#567=DIRECTION('center_axis',(0.,0.,1.));
#568=DIRECTION('ref_axis',(1.,0.,0.));
#569=CARTESIAN_POINT('',(0.,0.,0.));
#570=CARTESIAN_POINT('Origin',(0.0271368175376688,9.49996124166483,-25.));
#571=CARTESIAN_POINT('',(-3.06169674360542E-15,11.999813955953,-25.));
#572=CARTESIAN_POINT('',(-3.06169674360542E-15,7.00010852737666,-25.));
#573=CARTESIAN_POINT('',(-3.06178693509906E-15,6.32427940886775,-25.));
#574=CARTESIAN_POINT('Origin',(0.0271368175376687,9.49996124166483,-25.));
#575=CARTESIAN_POINT('Origin',(0.0271368175376687,9.49996124166483,-25.));
#576=CARTESIAN_POINT('',(2.52713681753767,9.49996124166483,-26.25));
#577=CARTESIAN_POINT('Origin',(0.0271368175376686,9.49996124166483,-26.25));
#578=CARTESIAN_POINT('',(2.52713681753767,9.49996124166483,-25.));
#579=CARTESIAN_POINT('',(2.52713681753767,9.49996124166483,-25.));
#580=CARTESIAN_POINT('Origin',(0.0271368175376687,9.49996124166483,-25.));
#581=CARTESIAN_POINT('Origin',(0.0271368175376687,9.49996124166483,-25.));
#582=CARTESIAN_POINT('Origin',(0.0271368175376686,9.49996124166483,-26.25));
#583=CARTESIAN_POINT('Origin',(0.0271368175376688,9.49996124166483,-25.));
#584=CARTESIAN_POINT('Origin',(0.,6.32427940886775,0.));
#585=CARTESIAN_POINT('',(-3.06169674360542E-15,7.00010852737666,-25.));
#586=CARTESIAN_POINT('',(-4.02030662419145E-15,1.11022302462516E-15,-24.9999999999991));
#587=CARTESIAN_POINT('',(-4.02030662419145E-15,6.32427940886775,-24.9999999999991));
#588=CARTESIAN_POINT('',(-3.06169674360542E-15,11.999813955953,-25.));
#589=CARTESIAN_POINT('',(-3.06178693509906E-15,6.32427940886775,-25.));
#590=CARTESIAN_POINT('',(-4.02030662419145E-15,12.6485588177355,-24.9999999999991));
#591=CARTESIAN_POINT('',(-4.02030662419145E-15,6.32427940886775,-24.9999999999991));
#592=CARTESIAN_POINT('',(-3.06161699786817E-15,12.6485588177355,24.9999999999983));
#593=CARTESIAN_POINT('Origin',(0.,12.6485588177355,0.));
#594=CARTESIAN_POINT('',(-24.9999999999991,12.6485588177355,-3.06161699786828E-15));
#595=CARTESIAN_POINT('Origin',(0.,12.6485588177355,0.));
#596=CARTESIAN_POINT('',(-24.9999999999991,1.11022302462516E-15,-3.06161699786828E-15));
#597=CARTESIAN_POINT('',(-24.9999999999991,6.32427940886775,-3.06161699786828E-15));
#598=CARTESIAN_POINT('Origin',(0.,0.,0.));
#599=CARTESIAN_POINT('',(0.,11.999813955953,25.));
#600=CARTESIAN_POINT('',(0.,7.00010852737666,25.));
#601=CARTESIAN_POINT('',(0.,6.32427940886775,25.));
#602=CARTESIAN_POINT('Origin',(0.,74.5000000000423,0.));
#603=CARTESIAN_POINT('',(10.5,75.0000000000423,-1.28587913910472E-15));
#604=CARTESIAN_POINT('Origin',(0.,75.0000000000423,0.));
#605=CARTESIAN_POINT('',(9.5,74.0000000000423,1.16341445918999E-15));
#606=CARTESIAN_POINT('',(10.,74.5000000000423,-1.22464679914735E-15));
#607=CARTESIAN_POINT('',(-9.5,74.0000000000423,-1.16341445918999E-15));
#608=CARTESIAN_POINT('Origin',(0.,74.0000000000423,0.));
#609=CARTESIAN_POINT('Origin',(0.,74.0000000000423,0.));
#610=CARTESIAN_POINT('Origin',(11.,75.0000000000423,0.));
#611=CARTESIAN_POINT('',(-11.,75.0000000000423,-1.34711147906209E-15));
#612=CARTESIAN_POINT('Origin',(0.,75.0000000000423,0.));
#613=CARTESIAN_POINT('Origin',(0.,67.8048047911392,0.));
#614=CARTESIAN_POINT('',(-9.5,60.609609582236,-1.16341445918999E-15));
#615=CARTESIAN_POINT('',(-1.16341445918999E-15,60.609609582236,9.5));
#616=CARTESIAN_POINT('Origin',(0.,60.609609582236,0.));
#617=CARTESIAN_POINT('Origin',(0.,60.609609582236,0.));
#618=CARTESIAN_POINT('',(-9.5,67.8048047911392,-1.16341445918999E-15));
#619=CARTESIAN_POINT('Origin',(0.,68.7170824512835,0.));
#620=CARTESIAN_POINT('',(-11.,62.4341649025247,-1.34711147906209E-15));
#621=CARTESIAN_POINT('',(-1.34711147906209E-15,62.4341649025247,11.));
#622=CARTESIAN_POINT('Origin',(0.,62.4341649025247,0.));
#623=CARTESIAN_POINT('',(-11.,68.7170824512835,-1.34711147906209E-15));
#624=CARTESIAN_POINT('Origin',(0.,62.4341649025247,0.));
#625=CARTESIAN_POINT('Origin',(0.,62.4341649025247,0.));
#626=CARTESIAN_POINT('',(-1.44137873123987E-15,57.6907484122739,11.7697505292417));
#627=CARTESIAN_POINT('Origin',(-3.18408167778305E-15,62.4341649025247,25.9999999999995));
#628=CARTESIAN_POINT('',(-11.7697505292417,57.6907484122739,-1.44137873123987E-15));
#629=CARTESIAN_POINT('Origin',(0.,57.6907484122739,0.));
#630=CARTESIAN_POINT('Origin',(0.,57.6907484122739,0.));
#631=CARTESIAN_POINT('Origin',(0.,40.3837856411753,0.));
#632=CARTESIAN_POINT('',(-23.3077257099694,23.0768228700767,-2.85437316861185E-15));
#633=CARTESIAN_POINT('',(-2.85437316861221E-15,23.0768228700776,23.3077257099723));
#634=CARTESIAN_POINT('Origin',(0.,23.0768228700776,0.));
#635=CARTESIAN_POINT('',(-17.5387381196056,40.3837856411753,-2.14787594992586E-15));
#636=CARTESIAN_POINT('Origin',(0.,23.0768228700776,0.));
#637=CARTESIAN_POINT('Ctrl Pts',(0.,23.0768228700776,23.3077257099723));
#638=CARTESIAN_POINT('Ctrl Pts',(-23.3077257099723,23.0768228700776,23.3077257099723));
#639=CARTESIAN_POINT('Ctrl Pts',(-23.3077257099723,23.0768228700776,0.));
#640=CARTESIAN_POINT('Ctrl Pts',(-23.3077257099723,23.0768228700776,-23.3077257099723));
#641=CARTESIAN_POINT('Ctrl Pts',(0.,23.0768228700776,-23.3077257099723));
#642=CARTESIAN_POINT('Ctrl Pts',(23.3077257099723,23.0768228700776,-23.3077257099723));
#643=CARTESIAN_POINT('Ctrl Pts',(23.3077257099723,23.0768228700776,0.));
#644=CARTESIAN_POINT('Ctrl Pts',(23.3077257099723,23.0768228700776,23.3077257099723));
#645=CARTESIAN_POINT('Ctrl Pts',(0.,23.0768228700776,23.3077257099723));
#646=CARTESIAN_POINT('Ctrl Pts',(0.,17.9999999999808,25.0000000000015));
#647=CARTESIAN_POINT('Ctrl Pts',(-25.0000000000015,17.9999999999808,25.0000000000015));
#648=CARTESIAN_POINT('Ctrl Pts',(-25.0000000000015,17.9999999999808,0.));
#649=CARTESIAN_POINT('Ctrl Pts',(-25.0000000000015,17.9999999999808,-25.0000000000015));
#650=CARTESIAN_POINT('Ctrl Pts',(0.,17.9999999999808,-25.0000000000015));
#651=CARTESIAN_POINT('Ctrl Pts',(25.0000000000015,17.9999999999808,-25.0000000000015));
#652=CARTESIAN_POINT('Ctrl Pts',(25.0000000000015,17.9999999999808,0.));
#653=CARTESIAN_POINT('Ctrl Pts',(25.0000000000015,17.9999999999808,25.0000000000015));
#654=CARTESIAN_POINT('Ctrl Pts',(0.,17.9999999999808,25.0000000000015));
#655=CARTESIAN_POINT('Ctrl Pts',(0.,12.6485588177355,24.9999999999983));
#656=CARTESIAN_POINT('Ctrl Pts',(-24.9999999999983,12.6485588177355,24.9999999999983));
#657=CARTESIAN_POINT('Ctrl Pts',(-24.9999999999983,12.6485588177355,0.));
#658=CARTESIAN_POINT('Ctrl Pts',(-24.9999999999983,12.6485588177355,-24.9999999999983));
#659=CARTESIAN_POINT('Ctrl Pts',(0.,12.6485588177355,-24.9999999999983));
#660=CARTESIAN_POINT('Ctrl Pts',(24.9999999999983,12.6485588177355,-24.9999999999983));
#661=CARTESIAN_POINT('Ctrl Pts',(24.9999999999983,12.6485588177355,0.));
#662=CARTESIAN_POINT('Ctrl Pts',(24.9999999999983,12.6485588177355,24.9999999999983));
#663=CARTESIAN_POINT('Ctrl Pts',(0.,12.6485588177355,24.9999999999983));
#664=CARTESIAN_POINT('Origin',(0.,12.6485588177355,0.));
#665=CARTESIAN_POINT('Origin',(9.76908889096623E-16,12.6485588177555,-7.97706644705057));
#666=CARTESIAN_POINT('Origin',(0.,6.32427940886775,0.));
#667=CARTESIAN_POINT('Origin',(0.,0.,0.));
#668=CARTESIAN_POINT('Origin',(23.,1.53080849893419E-15,0.));
#669=CARTESIAN_POINT('',(-23.0000000000002,0.,-2.81668763803893E-15));
#670=CARTESIAN_POINT('Origin',(0.,0.,0.));
#671=CARTESIAN_POINT('Origin',(0.,6.31100103865608,0.));
#672=CARTESIAN_POINT('',(-23.0000000000002,12.6220020773122,-2.81668763803893E-15));
#673=CARTESIAN_POINT('',(-23.0000000000002,6.31100103865608,-2.81668763803893E-15));
#674=CARTESIAN_POINT('',(-2.81668763803895E-15,12.6220020773122,23.0000000000003));
#675=CARTESIAN_POINT('Origin',(0.,12.6220020773122,0.));
#676=CARTESIAN_POINT('Origin',(0.,12.6220020773122,0.));
#677=CARTESIAN_POINT('Ctrl Pts',(0.,22.4695612741398,21.401961135174));
#678=CARTESIAN_POINT('Ctrl Pts',(-21.401961135174,22.4695612741398,21.401961135174));
#679=CARTESIAN_POINT('Ctrl Pts',(-21.401961135174,22.4695612741398,0.));
#680=CARTESIAN_POINT('Ctrl Pts',(-21.401961135174,22.4695612741398,-21.401961135174));
#681=CARTESIAN_POINT('Ctrl Pts',(0.,22.4695612741398,-21.401961135174));
#682=CARTESIAN_POINT('Ctrl Pts',(21.401961135174,22.4695612741398,-21.401961135174));
#683=CARTESIAN_POINT('Ctrl Pts',(21.401961135174,22.4695612741398,0.));
#684=CARTESIAN_POINT('Ctrl Pts',(21.401961135174,22.4695612741398,21.401961135174));
#685=CARTESIAN_POINT('Ctrl Pts',(0.,22.4695612741398,21.401961135174));
#686=CARTESIAN_POINT('Ctrl Pts',(0.,17.6754446796471,23.0000000000026));
#687=CARTESIAN_POINT('Ctrl Pts',(-23.0000000000026,17.6754446796471,23.0000000000026));
#688=CARTESIAN_POINT('Ctrl Pts',(-23.0000000000026,17.6754446796471,0.));
#689=CARTESIAN_POINT('Ctrl Pts',(-23.0000000000026,17.6754446796471,-23.0000000000026));
#690=CARTESIAN_POINT('Ctrl Pts',(0.,17.6754446796471,-23.0000000000026));
#691=CARTESIAN_POINT('Ctrl Pts',(23.0000000000026,17.6754446796471,-23.0000000000026));
#692=CARTESIAN_POINT('Ctrl Pts',(23.0000000000026,17.6754446796471,0.));
#693=CARTESIAN_POINT('Ctrl Pts',(23.0000000000026,17.6754446796471,23.0000000000026));
#694=CARTESIAN_POINT('Ctrl Pts',(0.,17.6754446796471,23.0000000000026));
#695=CARTESIAN_POINT('Ctrl Pts',(0.,12.6220020773122,23.0000000000003));
#696=CARTESIAN_POINT('Ctrl Pts',(-23.0000000000003,12.6220020773122,23.0000000000003));
#697=CARTESIAN_POINT('Ctrl Pts',(-23.0000000000003,12.6220020773122,0.));
#698=CARTESIAN_POINT('Ctrl Pts',(-23.0000000000003,12.6220020773122,-23.0000000000003));
#699=CARTESIAN_POINT('Ctrl Pts',(0.,12.6220020773122,-23.0000000000003));
#700=CARTESIAN_POINT('Ctrl Pts',(23.0000000000003,12.6220020773122,-23.0000000000003));
#701=CARTESIAN_POINT('Ctrl Pts',(23.0000000000003,12.6220020773122,0.));
#702=CARTESIAN_POINT('Ctrl Pts',(23.0000000000003,12.6220020773122,23.0000000000003));
#703=CARTESIAN_POINT('Ctrl Pts',(0.,12.6220020773122,23.0000000000003));
#704=CARTESIAN_POINT('',(-2.62098431996669E-15,22.4695612741398,21.401961135174));
#705=CARTESIAN_POINT('Origin',(9.96950234976125E-16,12.6220020773262,-8.14071645530974));
#706=CARTESIAN_POINT('',(-21.4019611351719,22.4695612741391,-2.62098431996643E-15));
#707=CARTESIAN_POINT('Origin',(0.,22.4695612741398,0.));
#708=CARTESIAN_POINT('Origin',(0.,22.4695612741398,0.));
#709=CARTESIAN_POINT('Origin',(0.,39.1678771830643,0.));
#710=CARTESIAN_POINT('',(-10.2697505292403,55.8661930919895,-1.25768171136759E-15));
#711=CARTESIAN_POINT('',(-15.8358558322061,39.1678771830643,-1.93933301566701E-15));
#712=CARTESIAN_POINT('',(-1.25768171136759E-15,55.8661930919895,10.2697505292403));
#713=CARTESIAN_POINT('Origin',(0.,55.8661930919895,0.));
#714=CARTESIAN_POINT('Origin',(0.,55.8661930919895,0.));
#715=CARTESIAN_POINT('Origin',(0.,60.609609582236,0.));
#716=CARTESIAN_POINT('Origin',(-3.00038465791108E-15,60.609609582236,24.5000000000005));
#717=CARTESIAN_POINT('Origin',(-0.0271368175376718,9.49996124166483,25.));
#718=CARTESIAN_POINT('',(0.,11.999813955953,25.));
#719=CARTESIAN_POINT('',(0.,7.00010852737666,25.));
#720=CARTESIAN_POINT('',(0.,6.32427940886775,25.));
#721=CARTESIAN_POINT('',(-2.52713681753767,9.49996124166483,25.));
#722=CARTESIAN_POINT('Origin',(-0.0271368175376718,9.49996124166483,25.));
#723=CARTESIAN_POINT('Origin',(-0.0271368175376718,9.49996124166483,25.));
#724=CARTESIAN_POINT('Origin',(-0.0271368175376718,9.49996124166483,26.25));
#725=CARTESIAN_POINT('',(-2.52713681753767,9.49996124166483,26.25));
#726=CARTESIAN_POINT('Origin',(-0.0271368175376718,9.49996124166483,26.25));
#727=CARTESIAN_POINT('Origin',(-0.0271368175376718,9.49996124166483,25.));
#728=CARTESIAN_POINT('',(-2.52713681753767,9.49996124166483,25.));
#729=CARTESIAN_POINT('Origin',(-0.0271368175376718,9.49996124166483,25.));
#730=CARTESIAN_POINT('Origin',(-0.0271368175376718,9.49996124166483,25.));
#731=UNCERTAINTY_MEASURE_WITH_UNIT(LENGTH_MEASURE(0.01),#735,
'DISTANCE_ACCURACY_VALUE',
'Maximum model space distance between geometric entities at asserted c
onnectivities');
#732=UNCERTAINTY_MEASURE_WITH_UNIT(LENGTH_MEASURE(0.01),#735,
'DISTANCE_ACCURACY_VALUE',
'Maximum model space distance between geometric entities at asserted c
onnectivities');
#733=(
GEOMETRIC_REPRESENTATION_CONTEXT(3)
GLOBAL_UNCERTAINTY_ASSIGNED_CONTEXT((#731))
GLOBAL_UNIT_ASSIGNED_CONTEXT((#735,#737,#738))
REPRESENTATION_CONTEXT('','3D')
);
#734=(
GEOMETRIC_REPRESENTATION_CONTEXT(3)
GLOBAL_UNCERTAINTY_ASSIGNED_CONTEXT((#732))
GLOBAL_UNIT_ASSIGNED_CONTEXT((#735,#737,#738))
REPRESENTATION_CONTEXT('','3D')
);
#735=(
LENGTH_UNIT()
NAMED_UNIT(*)
SI_UNIT(.MILLI.,.METRE.)
);
#736=(
LENGTH_UNIT()
NAMED_UNIT(*)
SI_UNIT($,.METRE.)
);
#737=(
NAMED_UNIT(*)
PLANE_ANGLE_UNIT()
SI_UNIT($,.RADIAN.)
);
#738=(
NAMED_UNIT(*)
SI_UNIT($,.STERADIAN.)
SOLID_ANGLE_UNIT()
);
#739=SHAPE_DEFINITION_REPRESENTATION(#740,#741);
#740=PRODUCT_DEFINITION_SHAPE('',$,#743);
#741=SHAPE_REPRESENTATION('',(#383),#733);
#742=PRODUCT_DEFINITION_CONTEXT('part definition',#747,'design');
#743=PRODUCT_DEFINITION('Makita Adapter','Makita Adapter v3',#744,#742);
#744=PRODUCT_DEFINITION_FORMATION('',$,#749);
#745=PRODUCT_RELATED_PRODUCT_CATEGORY('Makita Adapter v3',
'Makita Adapter v3',(#749));
#746=APPLICATION_PROTOCOL_DEFINITION('international standard',
'automotive_design',2009,#747);
#747=APPLICATION_CONTEXT(
'Core Data for Automotive Mechanical Design Process');
#748=PRODUCT_CONTEXT('part definition',#747,'mechanical');
#749=PRODUCT('Makita Adapter','Makita Adapter v3',$,(#748));
#750=PRESENTATION_STYLE_ASSIGNMENT((#751));
#751=SURFACE_STYLE_USAGE(.BOTH.,#752);
#752=SURFACE_SIDE_STYLE('',(#753));
#753=SURFACE_STYLE_FILL_AREA(#754);
#754=FILL_AREA_STYLE('Stahl - satiniert',(#755));
#755=FILL_AREA_STYLE_COLOUR('Stahl - satiniert',#756);
#756=COLOUR_RGB('Stahl - satiniert',0.627450980392157,0.627450980392157,
0.627450980392157);
ENDSEC;
END-ISO-10303-21;
